<?xml version="1.0" encoding="UTF-8" standalone="no"?>

<svg
   width="158mm"
   height="52mm"
   viewBox="0 0 158 52"
   version="1.1"
   id="svg6092"
   xmlns="http://www.w3.org/2000/svg">
  <defs
     id="defs6089" />
  <g
     id="layer1">
    <path
       id="rect12980"
       style="fill:#ffffff;stroke:#ffffff;stroke-width:0;stroke-miterlimit:0"
       d="M 0,0 H 157.86623 V 51.967445 H 0 Z" />
    <g
       aria-label="berculo"
       id="text817"
       style="font-weight:bold;font-size:8.8502px;line-height:1.25;font-family:'Cholla Slab OT';-inkscape-font-specification:'Cholla Slab OT Bold';letter-spacing:0px;word-spacing:0px;fill:#001928;stroke:#001928;stroke-width:0;stroke-miterlimit:0">
      <path
         d="m 24.196071,25.296469 v -9.00595 c 0,-3.27103 -1.91164,-5.692441 -6.074768,-5.692441 h -0.637214 c -2.888701,0 -5.097708,2.081564 -6.117249,2.081564 -0.254886,0 -0.382328,-0.169923 -0.382328,-0.509771 V 3.8436151 c 0,-0.7221753 -0.552252,-1.699236 -1.7417173,-1.699236 H 3.1255451 V 6.0526219 H 6.6089789 V 26.953225 H 3.1255451 v 3.908242 h 6.4570968 l 1.0195411,-1.486831 c 0.212405,-0.339847 0.509771,-0.382328 0.764657,-0.382328 1.019541,0 3.228548,1.996602 6.117249,1.996602 h 0.637214 c 4.163128,0 6.074768,-2.421411 6.074768,-5.692441 z m -4.375532,-0.254885 c 0,1.062023 -0.849618,1.911641 -1.911641,1.911641 h -5.012746 c -1.062022,0 -1.91164,-0.849618 -1.91164,-1.911641 v -8.49618 c 0,-1.062022 0.849618,-1.91164 1.91164,-1.91164 h 5.012746 c 1.062023,0 1.911641,0.849618 1.911641,1.91164 z"
         style="font-size:42.4809px"
         id="path3139" />
      <path
         d="m 47.390615,19.816433 v -3.7808 c 0,-2.931182 -2.37893,-5.310112 -5.310112,-5.310112 h -6.966868 c -2.931182,0 -5.310112,2.336449 -5.310112,5.310112 v 9.515722 c 0,2.973663 2.37893,5.310112 5.310112,5.310112 h 7.646562 c 0.93458,0 1.699236,-0.594732 1.699236,-1.529312 v -2.37893 h -8.538661 c -0.97706,0 -1.741716,-0.679695 -1.741716,-1.741717 V 22.450249 H 44.7568 c 1.44435,0 2.633815,-1.189465 2.633815,-2.633816 z M 43.015083,18.924335 H 34.179056 V 16.333 c 0,-0.93458 0.764656,-1.699236 1.699236,-1.699236 h 5.437555 c 0.93458,0 1.699236,0.764656 1.699236,1.699236 z"
         style="font-size:42.4809px"
         id="path3141" />
      <path
         d="m 69.778035,14.633764 v -2.421412 c 0,-0.764656 -0.594733,-1.486831 -1.529312,-1.486831 h -3.143587 c -0.722175,0 -1.91164,0.339847 -2.633816,0.679694 l -1.741717,0.849618 c -0.339847,0.169924 -0.764656,0.424809 -1.146984,0.424809 -0.254885,0 -0.424809,-0.08496 -0.637213,-0.382328 l -1.104504,-1.571793 h -6.457097 v 3.908243 h 3.483434 v 12.319461 h -3.483434 v 3.908242 H 62.726206 V 26.953225 H 59.242772 V 16.545404 c 0,-1.062022 0.849618,-1.91164 1.91164,-1.91164 z"
         style="font-size:42.4809px"
         id="path3143" />
      <path
         d="m 88.979442,25.551355 v -1.699236 h -4.375533 v 1.189465 c 0,0.93458 -0.679695,1.911641 -1.954122,1.911641 H 78.52914 c -1.062022,0 -1.91164,-0.849618 -1.91164,-1.911641 v -8.49618 c 0,-1.062022 0.849618,-1.91164 1.91164,-1.91164 h 5.522517 v 3.101105 h 2.80374 c 0.849618,0 1.571793,-0.637213 1.571793,-1.359388 v -5.64996 H 77.55208 c -2.931183,0 -5.310113,2.37893 -5.310113,5.310112 v 9.515722 c 0,2.931182 2.37893,5.310112 5.310113,5.310112 h 6.15973 c 2.931182,0 5.267632,-2.463892 5.267632,-5.310112 z"
         style="font-size:42.4809px"
         id="path3145" />
      <path
         d="m 116.7195,30.861467 v -3.908242 h -3.48344 V 14.633764 h 3.48344 v -3.908243 h -10.19542 v 3.908243 h 2.33645 v 10.40782 c 0,1.062023 -0.84962,1.911641 -1.91164,1.911641 h -5.01274 c -1.06203,0 -1.91165,-0.849618 -1.91165,-1.911641 v -10.40782 h 2.33645 V 10.725521 H 92.165538 v 3.908243 h 3.483434 V 25.33895 c 0,3.27103 1.911641,5.64996 6.074768,5.64996 h 0.63721 c 2.88871,0 5.09771,-1.996602 6.11725,-1.996602 0.25489,0 0.55226,0.08496 0.72218,0.339847 l 1.06202,1.529312 z"
         style="font-size:42.4809px"
         id="path3147" />
      <path
         d="m 132.64984,30.861467 v -3.908242 h -3.48343 V 3.8436151 c 0,-0.849618 -0.6797,-1.699236 -1.69924,-1.699236 h -6.15973 v 3.9082428 h 3.48344 V 26.953225 h -3.48344 v 3.908242 z"
         style="font-size:42.4809px"
         id="path3149" />
      <path
         d="m 154.65493,25.551355 v -9.515722 c 0,-2.931182 -2.37893,-5.310112 -5.31011,-5.310112 h -6.92439 c -2.93118,0 -5.31011,2.37893 -5.31011,5.310112 v 9.515722 c 0,2.931182 2.37893,5.310112 5.31011,5.310112 h 6.92439 c 2.93118,0 5.31011,-2.37893 5.31011,-5.310112 z m -4.37553,-0.509771 c 0,1.062023 -0.84962,1.911641 -1.91164,1.911641 h -4.97026 c -1.06203,0 -1.91165,-0.849618 -1.91165,-1.911641 v -8.49618 c 0,-1.062022 0.84962,-1.91164 1.91165,-1.91164 h 4.97026 c 1.06202,0 1.91164,0.849618 1.91164,1.91164 z"
         style="font-size:42.4809px"
         id="path3151" />
    </g>
    <path
       style="fill:#b18706;fill-opacity:1;stroke:#b18706;stroke-width:0;stroke-linecap:butt;stroke-linejoin:miter;stroke-miterlimit:0;stroke-dasharray:none;stroke-opacity:1"
       d="m 29.805937,18.77717 17.595282,-0.0353 c 5.67e-4,0.36538 0.01548,0.72192 0.003,1.03855 -0.0056,0.14343 -0.0085,0.30382 -0.02421,0.42382 -0.01756,0.13404 0,0 -0.01756,0.13404 -0.01388,0.10594 -0.06053,0.22721 -0.0947,0.33014 -0.194579,0.58582 -0.556377,1.14874 -1.257099,1.55999 -0.146566,0.086 -0.314381,0.16046 -0.500454,0.23262 -0.256872,0.0996 -0.551087,0.12092 -0.721535,0.11766 -0.894912,-0.0171 -4.612962,0.10256 -10.601835,-0.001 l -4.382175,-0.0193 z"
       id="path823" />
    <path
       id="rect825"
       style="fill:#ffffff;stroke-width:0"
       d="M 5.9260888,18.742 H 25.394621 v 3.879 H 5.9260888 Z" />
    <path
       id="rect825-5"
       style="fill:#ffffff;stroke-width:0"
       d="M 52.761108,18.742 H 155.17903 v 3.879 H 52.761108 Z" />
    <g
       aria-label="advocaten | mediation"
       id="text852"
       style="font-size:14.8167px;line-height:1.25;font-family:'Cholla Slab OT';-inkscape-font-specification:'Cholla Slab OT';letter-spacing:0px;word-spacing:0px;fill:#b18706;stroke:#b18706;stroke-width:0;stroke-miterlimit:0">
      <path
         d="m 17.877554,47.480503 v -0.651935 h -1.111253 v -4.859877 c 0,-0.829736 -0.651935,-1.511304 -1.48167,-1.511304 h -2.563289 c -0.148167,0 -0.281517,0.118534 -0.281517,0.266701 v 0.118533 c 0,0.148167 0.13335,0.266701 0.281517,0.266701 h 2.370672 c 0.592668,0 0.963086,0.488951 0.963086,0.948269 v 1.318686 c 0,0.192617 -0.118534,0.281517 -0.222251,0.281517 -0.400051,0 -0.711202,-0.488951 -2.015071,-0.488951 H 13.31401 c -1.140886,0 -1.689104,0.711202 -1.689104,1.585387 v 1.185336 c 0,0.859369 0.548218,1.585387 1.689104,1.585387 h 0.503768 c 1.303869,0 1.61502,-0.459318 2.015071,-0.459318 0.103717,0 0.237067,0.07408 0.281517,0.133351 l 0.118534,0.13335 c 0.07408,0.07408 0.237067,0.148167 0.370417,0.148167 z M 16.0551,45.835849 c 0,0.548218 -0.444501,0.992719 -0.992719,0.992719 h -1.733554 c -0.548218,0 -0.992719,-0.444501 -0.992719,-0.992719 v -0.977902 c 0,-0.548218 0.444501,-0.992719 0.992719,-0.992719 h 1.733554 c 0.548218,0 0.992719,0.444501 0.992719,0.992719 z"
         style="font-weight:300;-inkscape-font-specification:'Cholla Slab OT Light';letter-spacing:-0.0710764px"
         id="path3154" />
      <path
         d="m 25.718598,47.480503 v -0.651935 h -1.185336 v -9.053003 c 0,-0.148167 -0.13335,-0.311151 -0.31115,-0.311151 h -1.585387 v 0.651935 h 1.185336 v 2.504022 c 0,0.192617 -0.118534,0.281517 -0.222251,0.281517 -0.400051,0 -0.711201,-0.488951 -2.015071,-0.488951 h -0.503768 c -1.140886,0 -1.689103,0.711202 -1.689103,1.585387 v 3.941242 c 0,0.859369 0.548217,1.585387 1.689103,1.585387 h 0.503768 c 1.30387,0 1.61502,-0.459318 2.015071,-0.459318 0.103717,0 0.237068,0.07408 0.281518,0.133351 l 0.118533,0.13335 c 0.07408,0.07408 0.237067,0.148167 0.370418,0.148167 z m -1.896537,-1.644654 c 0,0.548218 -0.444501,0.992719 -0.992719,0.992719 h -1.733554 c -0.548218,0 -0.992719,-0.444501 -0.992719,-0.992719 v -3.733808 c 0,-0.548218 0.444501,-0.992719 0.992719,-0.992719 h 1.733554 c 0.548218,0 0.992719,0.444501 0.992719,0.992719 z"
         style="font-weight:300;-inkscape-font-specification:'Cholla Slab OT Light';letter-spacing:-0.0710764px"
         id="path3156" />
      <path
         d="m 33.529996,41.109322 v -0.651935 h -2.578105 v 0.651935 h 0.829735 l -1.333503,3.793075 c -0.251884,0.726019 -0.622302,1.881721 -0.622302,1.881721 h -0.02963 c 0,0 -0.370418,-1.155702 -0.622301,-1.881721 l -1.333503,-3.793075 h 0.829735 v -0.651935 h -2.578106 v 0.651935 h 0.992719 l 2.133605,5.92668 c 0.07408,0.222251 0.281517,0.444501 0.503767,0.444501 h 0.177801 c 0.237067,0 0.429684,-0.22225 0.503768,-0.444501 l 2.133604,-5.92668 z"
         style="font-weight:300;-inkscape-font-specification:'Cholla Slab OT Light';letter-spacing:-0.0710764px"
         id="path3158" />
      <path
         d="m 39.667116,45.998833 v -4.059776 c 0,-0.814918 -0.651935,-1.48167 -1.48167,-1.48167 h -2.207688 c -0.814919,0 -1.48167,0.666752 -1.48167,1.48167 v 4.059776 c 0,0.814919 0.666751,1.48167 1.48167,1.48167 h 2.207688 c 0.829735,0 1.48167,-0.666751 1.48167,-1.48167 z m -0.711201,-0.13335 c 0,0.533401 -0.429685,0.963085 -0.963086,0.963085 h -1.822454 c -0.518584,0 -0.963085,-0.429684 -0.963085,-0.963085 v -3.793075 c 0,-0.533402 0.444501,-0.963086 0.977902,-0.963086 h 1.822454 c 0.518584,0 0.948269,0.429684 0.948269,0.963086 z"
         style="font-weight:300;-inkscape-font-specification:'Cholla Slab OT Light';letter-spacing:-0.0710764px"
         id="path3160" />
      <path
         d="m 46.959929,45.998833 v -0.340784 h -0.711201 v 0.207434 c 0,0.533401 -0.444501,0.963085 -0.963086,0.963085 h -1.911354 c -0.518585,0 -0.963086,-0.429684 -0.963086,-0.963085 v -3.793075 c 0,-0.533402 0.444501,-0.963086 0.977903,-0.963086 h 2.563289 v 1.126069 h 0.711201 v -1.778004 h -3.481924 c -0.814919,0 -1.48167,0.666752 -1.48167,1.48167 v 4.059776 c 0,0.814919 0.666751,1.48167 1.48167,1.48167 h 2.296588 c 0.814919,0 1.48167,-0.666751 1.48167,-1.48167 z"
         style="font-weight:300;-inkscape-font-specification:'Cholla Slab OT Light';letter-spacing:-0.0710764px"
         id="path3162" />
      <path
         d="m 54.608347,47.480503 v -0.651935 h -1.111253 v -4.859877 c 0,-0.829736 -0.651935,-1.511304 -1.48167,-1.511304 h -2.563289 c -0.148167,0 -0.281517,0.118534 -0.281517,0.266701 v 0.118533 c 0,0.148167 0.13335,0.266701 0.281517,0.266701 h 2.370672 c 0.592668,0 0.963086,0.488951 0.963086,0.948269 v 1.318686 c 0,0.192617 -0.118534,0.281517 -0.222251,0.281517 -0.400051,0 -0.711202,-0.488951 -2.015071,-0.488951 h -0.503768 c -1.140886,0 -1.689104,0.711202 -1.689104,1.585387 v 1.185336 c 0,0.859369 0.548218,1.585387 1.689104,1.585387 h 0.503768 c 1.303869,0 1.61502,-0.459318 2.015071,-0.459318 0.103717,0 0.237067,0.07408 0.281517,0.133351 l 0.118534,0.13335 c 0.07408,0.07408 0.237067,0.148167 0.370417,0.148167 z m -1.822454,-1.644654 c 0,0.548218 -0.444501,0.992719 -0.992719,0.992719 H 50.05962 c -0.548218,0 -0.992719,-0.444501 -0.992719,-0.992719 v -0.977902 c 0,-0.548218 0.444501,-0.992719 0.992719,-0.992719 h 1.733554 c 0.548218,0 0.992719,0.444501 0.992719,0.992719 z"
         style="font-weight:300;-inkscape-font-specification:'Cholla Slab OT Light';letter-spacing:-0.0710764px"
         id="path3164" />
      <path
         d="m 59.337884,47.080452 v -0.622301 c -0.385235,0.192617 -0.814919,0.370417 -1.17052,0.370417 -0.400051,0 -0.740835,-0.162983 -0.740835,-0.800102 V 41.109322 H 59.1749 v -0.651935 h -1.748371 v -2.711456 c 0,-0.148167 -0.13335,-0.281517 -0.281517,-0.281517 h -0.148167 c -0.148167,0 -0.281517,0.13335 -0.281517,0.281517 v 2.711456 h -0.844552 c -0.148167,0 -0.281518,0.118534 -0.281518,0.266701 v 0.118533 c 0,0.148167 0.133351,0.266701 0.281518,0.266701 h 0.844552 v 5.082128 c 0,0.874185 0.592668,1.333503 1.289053,1.333503 0.533401,0 1.007535,-0.251884 1.333503,-0.444501 z"
         style="font-weight:300;-inkscape-font-specification:'Cholla Slab OT Light';letter-spacing:-0.0710764px"
         id="path3166" />
      <path
         d="m 66.334378,43.717061 v -1.778004 c 0,-0.829735 -0.666752,-1.48167 -1.466854,-1.48167 h -2.281772 c -0.814918,0 -1.496486,0.651935 -1.496486,1.466854 v 4.074592 c 0,0.889002 0.740835,1.48167 1.48167,1.48167 h 2.474389 c 0.162983,0 0.281517,-0.118534 0.281517,-0.266701 v -0.118533 c 0,-0.148167 -0.118534,-0.266701 -0.281517,-0.266701 H 62.77837 c -0.488952,0 -0.977903,-0.370417 -0.977903,-0.977902 v -1.52612 h 3.867159 c 0.444501,0 0.666752,-0.251884 0.666752,-0.607485 z m -0.711202,-0.02963 h -3.822709 v -1.61502 c 0,-0.474135 0.400051,-0.963086 0.977903,-0.963086 h 1.88172 c 0.592668,0 0.963086,0.459318 0.963086,0.963086 z"
         style="font-weight:300;-inkscape-font-specification:'Cholla Slab OT Light';letter-spacing:-0.0710764px"
         id="path3168" />
      <path
         d="M 75.168146,47.480503 V 46.828568 H 73.98281 v -4.830244 c 0,-0.755652 -0.459318,-1.585387 -1.718737,-1.585387 h -0.503768 c -1.289053,0 -1.585387,0.488951 -1.985438,0.488951 -0.103717,0 -0.22225,-0.103717 -0.281517,-0.162983 l -0.103717,-0.118534 c -0.0889,-0.103717 -0.207434,-0.162984 -0.355601,-0.162984 h -1.377953 v 0.651935 h 1.185336 v 5.719246 h -1.185336 v 0.651935 h 2.91889 v -0.651935 h -1.022352 v -4.741344 c 0,-0.474134 0.400051,-0.977902 0.992719,-0.977902 h 1.733554 c 0.592668,0 0.992718,0.503768 0.992718,0.977902 v 4.741344 h -1.022352 v 0.651935 z"
         style="font-weight:300;-inkscape-font-specification:'Cholla Slab OT Light';letter-spacing:-0.0710764px"
         id="path3170" />
      <path
         d="M 81.126243,50.873527 V 36.664312 c 0,-0.162984 -0.13335,-0.296334 -0.296334,-0.296334 h -0.103716 c -0.162984,0 -0.296334,0.13335 -0.296334,0.296334 v 14.209215 c 0,0.162984 0.13335,0.296334 0.296334,0.296334 h 0.103716 c 0.162984,0 0.296334,-0.13335 0.296334,-0.296334 z"
         style="word-spacing:0.529167px;fill:#001a29"
         id="path3172" />
      <path
         d="m 97.20236,47.480503 v -0.651935 h -1.185336 v -4.815427 c 0,-0.874186 -0.755651,-1.600204 -1.79282,-1.600204 h -0.103717 c -1.185336,0 -1.363137,0.488951 -1.985438,0.488951 -0.726018,0 -0.889002,-0.488951 -1.896538,-0.488951 h -0.103717 c -1.126069,0 -1.466853,0.488951 -1.866904,0.488951 -0.103717,0 -0.22225,-0.103717 -0.281517,-0.162983 l -0.103717,-0.118534 c -0.05927,-0.05927 -0.192617,-0.162984 -0.355601,-0.162984 h -1.377953 v 0.651935 h 1.185336 v 5.719246 h -1.185336 v 0.651935 h 2.74109 V 46.828568 H 88.04564 v -4.75616 c 0,-0.518585 0.414867,-0.963086 0.963085,-0.963086 h 1.34832 c 0.548218,0 0.963085,0.444501 0.963085,0.963086 v 4.75616 h -0.844552 v 0.651935 h 2.400306 v -0.651935 h -0.844552 v -4.75616 c 0,-0.518585 0.414868,-0.963086 0.963085,-0.963086 h 1.34832 c 0.548218,0 0.963086,0.444501 0.963086,0.963086 v 4.75616 h -0.844552 v 0.651935 z"
         style="font-weight:300;-inkscape-font-specification:'Cholla Slab OT Light';letter-spacing:-0.0710764px"
         id="path3174" />
      <path
         d="m 103.88771,43.717061 v -1.778004 c 0,-0.829735 -0.66675,-1.48167 -1.46685,-1.48167 h -2.28177 c -0.814923,0 -1.496491,0.651935 -1.496491,1.466854 v 4.074592 c 0,0.889002 0.740835,1.48167 1.481671,1.48167 h 2.47439 c 0.16298,0 0.28152,-0.118534 0.28152,-0.266701 v -0.118533 c 0,-0.148167 -0.11854,-0.266701 -0.28152,-0.266701 h -2.26696 c -0.488948,0 -0.977899,-0.370417 -0.977899,-0.977902 v -1.52612 h 3.867159 c 0.4445,0 0.66675,-0.251884 0.66675,-0.607485 z m -0.7112,-0.02963 h -3.822709 v -1.61502 c 0,-0.474135 0.400051,-0.963086 0.977899,-0.963086 h 1.88172 c 0.59267,0 0.96309,0.459318 0.96309,0.963086 z"
         style="font-weight:300;-inkscape-font-specification:'Cholla Slab OT Light';letter-spacing:-0.0710764px"
         id="path3176" />
      <path
         d="m 111.98064,47.480503 v -0.651935 h -1.18533 v -9.053003 c 0,-0.148167 -0.13335,-0.311151 -0.31115,-0.311151 h -1.58539 v 0.651935 h 1.18534 v 2.504022 c 0,0.192617 -0.11854,0.281517 -0.22225,0.281517 -0.40005,0 -0.71121,-0.488951 -2.01507,-0.488951 h -0.50377 c -1.14089,0 -1.68911,0.711202 -1.68911,1.585387 v 3.941242 c 0,0.859369 0.54822,1.585387 1.68911,1.585387 h 0.50377 c 1.30386,0 1.61502,-0.459318 2.01507,-0.459318 0.10371,0 0.23706,0.07408 0.28151,0.133351 l 0.11854,0.13335 c 0.0741,0.07408 0.23706,0.148167 0.37041,0.148167 z m -1.89653,-1.644654 c 0,0.548218 -0.4445,0.992719 -0.99272,0.992719 h -1.73356 c -0.54821,0 -0.99271,-0.444501 -0.99271,-0.992719 v -3.733808 c 0,-0.548218 0.4445,-0.992719 0.99271,-0.992719 h 1.73356 c 0.54822,0 0.99272,0.444501 0.99272,0.992719 z"
         style="font-weight:300;-inkscape-font-specification:'Cholla Slab OT Light';letter-spacing:-0.0710764px"
         id="path3178" />
      <path
         d="m 115.02107,38.531216 v -0.785285 c 0,-0.148167 -0.13335,-0.281517 -0.28152,-0.281517 h -0.14816 c -0.14817,0 -0.28152,0.13335 -0.28152,0.281517 v 0.800102 c 0,0.148167 0.13335,0.281517 0.28152,0.281517 h 0.14816 c 0.14817,0 0.28152,-0.13335 0.28152,-0.296334 z m 1.18534,8.949287 v -0.651935 h -1.18534 v -6.074847 c 0,-0.148167 -0.13335,-0.296334 -0.29633,-0.296334 h -1.60021 v 0.651935 h 1.18534 v 5.719246 h -1.18534 v 0.651935 z"
         style="font-weight:300;-inkscape-font-specification:'Cholla Slab OT Light';letter-spacing:-0.0710764px"
         id="path3180" />
      <path
         d="m 123.76591,47.480503 v -0.651935 h -1.11125 v -4.859877 c 0,-0.829736 -0.65193,-1.511304 -1.48167,-1.511304 h -2.56329 c -0.14817,0 -0.28152,0.118534 -0.28152,0.266701 v 0.118533 c 0,0.148167 0.13335,0.266701 0.28152,0.266701 h 2.37067 c 0.59267,0 0.96309,0.488951 0.96309,0.948269 v 1.318686 c 0,0.192617 -0.11854,0.281517 -0.22225,0.281517 -0.40005,0 -0.7112,-0.488951 -2.01507,-0.488951 h -0.50377 c -1.14089,0 -1.6891,0.711202 -1.6891,1.585387 v 1.185336 c 0,0.859369 0.54821,1.585387 1.6891,1.585387 h 0.50377 c 1.30387,0 1.61502,-0.459318 2.01507,-0.459318 0.10371,0 0.23707,0.07408 0.28152,0.133351 l 0.11853,0.13335 c 0.0741,0.07408 0.23707,0.148167 0.37042,0.148167 z m -1.82245,-1.644654 c 0,0.548218 -0.4445,0.992719 -0.99272,0.992719 h -1.73355 c -0.54822,0 -0.99272,-0.444501 -0.99272,-0.992719 v -0.977902 c 0,-0.548218 0.4445,-0.992719 0.99272,-0.992719 h 1.73355 c 0.54822,0 0.99272,0.444501 0.99272,0.992719 z"
         style="font-weight:300;-inkscape-font-specification:'Cholla Slab OT Light';letter-spacing:-0.0710764px"
         id="path3182" />
      <path
         d="m 128.49546,47.080452 v -0.622301 c -0.38524,0.192617 -0.81492,0.370417 -1.17052,0.370417 -0.40005,0 -0.74084,-0.162983 -0.74084,-0.800102 v -4.919144 h 1.74837 v -0.651935 h -1.74837 v -2.711456 c 0,-0.148167 -0.13335,-0.281517 -0.28151,-0.281517 h -0.14817 c -0.14817,0 -0.28152,0.13335 -0.28152,0.281517 v 2.711456 h -0.84455 c -0.14817,0 -0.28152,0.118534 -0.28152,0.266701 v 0.118533 c 0,0.148167 0.13335,0.266701 0.28152,0.266701 h 0.84455 v 5.082128 c 0,0.874185 0.59267,1.333503 1.28905,1.333503 0.53341,0 1.00754,-0.251884 1.33351,-0.444501 z"
         style="font-weight:300;-inkscape-font-specification:'Cholla Slab OT Light';letter-spacing:-0.0710764px"
         id="path3184" />
      <path
         d="m 131.84704,38.531216 v -0.785285 c 0,-0.148167 -0.13335,-0.281517 -0.28152,-0.281517 h -0.14817 c -0.14817,0 -0.28152,0.13335 -0.28152,0.281517 v 0.800102 c 0,0.148167 0.13335,0.281517 0.28152,0.281517 h 0.14817 c 0.14817,0 0.28152,-0.13335 0.28152,-0.296334 z m 1.18533,8.949287 v -0.651935 h -1.18533 v -6.074847 c 0,-0.148167 -0.13335,-0.296334 -0.29634,-0.296334 h -1.6002 v 0.651935 h 1.18533 v 5.719246 h -1.18533 v 0.651935 z"
         style="font-weight:300;-inkscape-font-specification:'Cholla Slab OT Light';letter-spacing:-0.0710764px"
         id="path3186" />
      <path
         d="m 139.79178,45.998833 v -4.059776 c 0,-0.814918 -0.65193,-1.48167 -1.48167,-1.48167 h -2.20768 c -0.81492,0 -1.48167,0.666752 -1.48167,1.48167 v 4.059776 c 0,0.814919 0.66675,1.48167 1.48167,1.48167 h 2.20768 c 0.82974,0 1.48167,-0.666751 1.48167,-1.48167 z m -0.7112,-0.13335 c 0,0.533401 -0.42968,0.963085 -0.96308,0.963085 h -1.82246 c -0.51858,0 -0.96308,-0.429684 -0.96308,-0.963085 v -3.793075 c 0,-0.533402 0.4445,-0.963086 0.9779,-0.963086 h 1.82245 c 0.51859,0 0.94827,0.429684 0.94827,0.963086 z"
         style="font-weight:300;-inkscape-font-specification:'Cholla Slab OT Light';letter-spacing:-0.0710764px"
         id="path3188" />
      <path
         d="m 148.89223,47.480503 v -0.651935 h -1.18533 v -4.830244 c 0,-0.755652 -0.45932,-1.585387 -1.71874,-1.585387 h -0.50377 c -1.28905,0 -1.58539,0.488951 -1.98544,0.488951 -0.10371,0 -0.22225,-0.103717 -0.28151,-0.162983 l -0.10372,-0.118534 c -0.0889,-0.103717 -0.20743,-0.162984 -0.3556,-0.162984 h -1.37795 v 0.651935 h 1.18533 v 5.719246 h -1.18533 v 0.651935 h 2.91889 v -0.651935 h -1.02236 v -4.741344 c 0,-0.474134 0.40005,-0.977902 0.99272,-0.977902 h 1.73356 c 0.59266,0 0.99272,0.503768 0.99272,0.977902 v 4.741344 h -1.02236 v 0.651935 z"
         style="font-weight:300;-inkscape-font-specification:'Cholla Slab OT Light';letter-spacing:-0.0710764px"
         id="path3190" />
    </g>
  </g>
</svg>
