<?xml version="1.0" encoding="utf-8"?>
<!-- Generator: Adobe Illustrator 24.2.3, SVG Export Plug-In . SVG Version: 6.00 Build 0)  -->
<svg version="1.1" id="Layer_1" xmlns="http://www.w3.org/2000/svg" xmlns:xlink="http://www.w3.org/1999/xlink" x="0px" y="0px"
	 width="273.21px" height="137.32px" viewBox="0 0 273.21 137.32" style="enable-background:new 0 0 273.21 137.32;"
	 xml:space="preserve">
<g>
	<path style="fill:#0B2659;" d="M128.71,20.89c-0.6,0-2.35,0-3.16,0.05v11.82c0.85,0.15,2.31,0.25,4.31,0.25
		c5.51,0,7.97-2.65,7.97-6.36C137.83,22.3,133.92,20.89,128.71,20.89 M130.11,6.36c-1.55,0-3.21,0.05-4.56,0.1v10.92
		c0.95,0.05,1.85,0.05,3.06,0.05c5.56,0,8.52-2.2,8.52-5.91C137.13,8.52,135.57,6.36,130.11,6.36 M129.56,36.77
		c-2,0-5.31-0.1-8.62-0.15V2.81c2.46-0.05,5.91-0.15,9.97-0.15c7.41,0,10.97,3.06,10.97,8.12c0,3.56-2.4,6.71-6.06,7.87v0.1
		c4.71,0.8,6.81,4.26,6.81,7.76C142.64,30.56,140.13,36.77,129.56,36.77"/>
	<path style="fill:#0B2659;" d="M158.92,15.03c-3.61,0-7.01,2.76-7.01,8.92c0,6.01,2.46,9.32,7.01,9.32c3.71,0,6.91-2.9,6.91-9.27
		C165.83,18.34,163.53,15.03,158.92,15.03 M158.37,37.08c-6.76,0-11.17-3.91-11.17-12.68c0-7.31,4.61-13.13,12.12-13.13
		c6.36,0,11.22,3.51,11.22,12.47C170.54,31.26,165.73,37.08,158.37,37.08"/>
	<path style="fill:#0B2659;" d="M185.71,14.58c-3.26,0-5.56,2.46-6.06,6.11h11.62C191.37,17.03,189.22,14.58,185.71,14.58
		 M195.73,23.9h-16.28c-0.2,6.66,2.55,9.52,7.87,9.52c2.55,0,5.26-0.6,7.26-1.55l0.4,3.66c-2.4,1-5.31,1.55-8.42,1.55
		c-7.67,0-11.77-4.01-11.77-12.78c0-7.46,4.06-13.03,11.12-13.03c7.01,0,9.97,4.76,9.97,10.47
		C195.88,22.35,195.83,23.05,195.73,23.9"/>
	<path style="fill:#0B2659;" d="M207.31,36.62h-4.51V3.56c-1.2-0.2-2.91-0.4-4.36-0.5V0.4c2.51-0.3,5.96-0.5,8.87-0.35V36.62z"/>
	<path style="fill:#0B2659;" d="M219.73,37.08c-1.85,0-3.71-0.15-5.26-0.45l0.15-4.01c1.55,0.5,3.56,0.85,5.46,0.85
		c3.31,0,5.56-1.5,5.56-3.81c0-5.56-11.57-2.15-11.57-10.92c0-4.21,3.46-7.46,9.97-7.46c1.5,0,3.26,0.2,4.76,0.5l-0.1,3.76
		c-1.55-0.5-3.36-0.8-5.01-0.8c-3.31,0-4.96,1.4-4.96,3.56c0,5.46,11.62,2.5,11.62,10.87C230.35,33.67,226.34,37.08,219.73,37.08"/>
	<path style="fill:#0092D4;" d="M16.23,113.08c-0.65-1.7-1.1-3.31-1.5-5.06h-0.1c-0.4,1.65-0.9,3.41-1.55,5.11l-4.36,12.02h11.92
		L16.23,113.08z M24.7,136.73l-2.81-7.92H7.52l-2.81,7.92H0l12.33-33.82h5.11l12.43,33.82H24.7z"/>
	<path style="fill:#0092D4;" d="M49.54,115.59c-1.5-0.4-3.01-0.55-4.41-0.55c-4.76,0-7.92,2.86-7.92,10.02
		c0,5.36,1.75,8.42,5.51,8.42c4.51,0,6.81-5.26,6.81-9.62V115.59z M49.69,136.73c0-1.4,0.1-3.61,0.4-5.06l-0.1-0.05
		c-1.4,3.36-4.46,5.56-8.37,5.56c-6.11,0-9.17-4.46-9.17-11.72c0-8.72,5.01-13.98,12.88-13.98c1.35,0,2.71,0.1,4.21,0.25v-8.07
		c-1.2-0.2-2.91-0.4-4.36-0.5v-2.65c2.51-0.3,5.96-0.5,8.87-0.35v33.07c1.2,0.2,2.91,0.4,4.36,0.5v2.65
		C55.91,136.68,52.45,136.88,49.69,136.73"/>
	<path style="fill:#0092D4;" d="M73.64,136.73h-4.66l-9.37-24.9h5.06l5.26,14.83c0.55,1.6,1.05,3.16,1.45,4.71h0.1
		c0.4-1.45,0.85-3.06,1.4-4.56l5.41-14.98h4.86L73.64,136.73z"/>
	<path style="fill:#0092D4;" d="M96.68,115.14c-3.61,0-7.01,2.76-7.01,8.92c0,6.01,2.46,9.32,7.01,9.32c3.71,0,6.91-2.9,6.91-9.27
		C103.59,118.44,101.29,115.14,96.68,115.14 M96.13,137.18c-6.76,0-11.17-3.91-11.17-12.68c0-7.31,4.61-13.13,12.12-13.13
		c6.36,0,11.22,3.51,11.22,12.47C108.3,131.37,103.49,137.18,96.13,137.18"/>
	<path style="fill:#0092D4;" d="M123.47,137.08c-5.96,0-10.92-2.81-10.92-11.97c0-8.02,4.11-13.68,12.43-13.68
		c1.95,0,3.91,0.3,5.66,0.8l-0.5,3.96c-1.55-0.6-3.41-1.05-5.36-1.05c-5.01,0-7.46,3.71-7.46,9.37c0,4.86,1.6,8.72,7.11,8.72
		c2.1,0,4.31-0.5,5.91-1.35l0.35,3.91C129.03,136.43,126.38,137.08,123.47,137.08"/>
	<path style="fill:#0092D4;" d="M149.57,125.26c-8.67,0-10.57,2.66-10.57,4.91c0,2.1,1.5,3.46,3.81,3.46c4.06,0,6.76-4.01,6.76-7.92
		V125.26z M149.83,136.73c0-1.75,0-3.56,0.25-4.96h-0.1c-1.2,3.06-4.36,5.41-8.47,5.41c-4.11,0-6.91-2.21-6.91-6.16
		c0-5.46,5.56-8.92,14.98-8.92v-1.85c0-3.46-1.35-5.31-5.46-5.31c-2.35,0-5.36,0.75-7.51,2.05l-0.45-3.86c2.4-1,5.41-1.8,8.72-1.8
		c7.16,0,9.22,3.36,9.22,8.32v13.58c1.2,0.2,2.91,0.4,4.36,0.5v2.65C155.94,136.68,152.48,136.88,149.83,136.73"/>
	<path style="fill:#0092D4;" d="M171.17,137.13c-5.11,0-6.66-2.1-6.66-7.47v-14.33h-5.11v-3.51h5.11v-8.07l4.51-1.25v9.32h6.96v3.51
		h-6.96v12.73c0,4.11,0.75,5.21,3.56,5.21c1.15,0,2.4-0.2,3.41-0.45v3.81C174.58,136.93,172.77,137.13,171.17,137.13"/>
	<path style="fill:#0092D4;" d="M190.81,114.69c-3.26,0-5.56,2.46-6.06,6.11h11.62C196.47,117.14,194.31,114.69,190.81,114.69
		 M200.83,124h-16.28c-0.2,6.66,2.55,9.52,7.87,9.52c2.55,0,5.26-0.6,7.26-1.55l0.4,3.66c-2.4,1-5.31,1.55-8.42,1.55
		c-7.67,0-11.77-4.01-11.77-12.78c0-7.46,4.06-13.03,11.12-13.03c7.01,0,9.97,4.76,9.97,10.47
		C200.98,122.45,200.93,123.15,200.83,124"/>
	<path style="fill:#0092D4;" d="M212.8,117.04l0.1,0.05c1.45-3.46,4.51-5.76,8.77-5.76c5.71,0,7.51,3.56,7.51,7.97v17.43h-4.51
		v-16.08c0-3.51-0.95-5.56-4.26-5.56c-4.11,0-7.07,4.16-7.07,9.67v11.97h-4.51v-21.39c-1.2-0.2-2.91-0.4-4.36-0.5v-2.65
		c2.51-0.3,5.96-0.5,8.72-0.35C213.2,113.28,213.1,115.59,212.8,117.04"/>
	<path style="fill:#0B2659;" d="M56.78,86.6v-3.41l14.18-22.35c0.95-1.45,1.75-2.71,2.76-4.06c-1.6,0.05-3.91,0.1-7.36,0.1h-9.07
		v-4.11h21.79v3.51L64.14,79.53c-0.65,1-1.3,1.95-2,2.96c1.05-0.1,4.06-0.1,8.42-0.1h8.72v4.21H56.78z"/>
	<path style="fill:#0B2659;" d="M98.31,75.12c-8.67,0-10.57,2.66-10.57,4.91c0,2.1,1.5,3.46,3.81,3.46c4.06,0,6.76-4.01,6.76-7.92
		V75.12z M98.56,86.6c0-1.75,0-3.56,0.25-4.96h-0.1c-1.2,3.06-4.36,5.41-8.47,5.41c-4.11,0-6.91-2.21-6.91-6.16
		c0-5.46,5.56-8.92,14.98-8.92v-1.85c0-3.46-1.35-5.31-5.46-5.31c-2.35,0-5.36,0.75-7.52,2.05L84.88,63c2.4-1,5.41-1.8,8.72-1.8
		c7.16,0,9.22,3.36,9.22,8.32v13.58c1.2,0.2,2.9,0.4,4.36,0.5v2.65C104.67,86.55,101.22,86.75,98.56,86.6"/>
	<path style="fill:#0B2659;" d="M117.55,66.91l0.1,0.05c1.45-3.46,4.51-5.76,8.77-5.76c5.71,0,7.51,3.56,7.51,7.97V86.6h-4.51V70.51
		c0-3.51-0.95-5.56-4.26-5.56c-4.11,0-7.06,4.16-7.06,9.67V86.6h-4.51V65.2c-1.2-0.2-2.91-0.4-4.36-0.5v-2.66
		c2.5-0.3,5.96-0.5,8.72-0.35C117.95,63.15,117.85,65.45,117.55,66.91"/>
	<path style="fill:#0B2659;" d="M157.28,65.45c-1.5-0.4-3.01-0.55-4.41-0.55c-4.76,0-7.92,2.86-7.92,10.02
		c0,5.36,1.75,8.42,5.51,8.42c4.51,0,6.81-5.26,6.81-9.62V65.45z M157.43,86.6c0-1.4,0.1-3.61,0.4-5.06l-0.1-0.05
		c-1.4,3.36-4.46,5.56-8.37,5.56c-6.11,0-9.17-4.46-9.17-11.72c0-8.72,5.01-13.98,12.88-13.98c1.35,0,2.71,0.1,4.21,0.25v-8.07
		c-1.2-0.2-2.91-0.4-4.36-0.5v-2.65c2.5-0.3,5.96-0.5,8.87-0.35v33.07c1.2,0.2,2.91,0.4,4.36,0.5v2.65
		C163.64,86.55,160.18,86.75,157.43,86.6"/>
	<path style="fill:#0B2659;" d="M179.97,64.55c-3.26,0-5.56,2.46-6.06,6.11h11.62C185.63,67.01,183.48,64.55,179.97,64.55
		 M189.99,73.87h-16.28c-0.2,6.66,2.55,9.52,7.87,9.52c2.55,0,5.26-0.6,7.26-1.55l0.4,3.66c-2.4,1-5.31,1.55-8.42,1.55
		c-7.67,0-11.77-4.01-11.77-12.78c0-7.46,4.06-13.03,11.12-13.03c7.01,0,9.97,4.76,9.97,10.47
		C190.14,72.32,190.09,73.02,189.99,73.87"/>
	<path style="fill:#0B2659;" d="M201.82,67.61h0.1c1.05-3.46,3.61-6.91,8.57-6.36l-0.2,4.41c-5.26-0.9-7.76,2.96-7.76,10.92V86.6
		h-4.51V65.2c-1.2-0.2-2.91-0.4-4.36-0.5v-2.65c2.5-0.3,5.96-0.5,8.72-0.35C202.37,63.25,202.22,65.55,201.82,67.61"/>
	<path style="fill:#0B2659;" d="M219.7,87.05c-1.85,0-3.71-0.15-5.26-0.45l0.15-4.01c1.55,0.5,3.56,0.85,5.46,0.85
		c3.31,0,5.56-1.5,5.56-3.81c0-5.56-11.57-2.15-11.57-10.92c0-4.21,3.46-7.47,9.97-7.47c1.5,0,3.26,0.2,4.76,0.5l-0.1,3.76
		c-1.55-0.5-3.36-0.8-5.01-0.8c-3.31,0-4.96,1.4-4.96,3.56c0,5.46,11.62,2.5,11.62,10.87C230.32,83.64,226.32,87.05,219.7,87.05"/>
</g>
<polygon style="fill:#0B2659;" points="242.9,137.32 253.01,131.49 242.9,125.65 "/>
<polygon style="fill:#DB1553;" points="253.01,119.82 242.9,113.99 242.9,125.66 "/>
<polygon style="fill:#0B2659;" points="253.01,108.15 242.9,102.32 242.9,113.99 "/>
<polygon style="fill:#83D0F5;" points="242.9,125.66 253.01,131.49 253.01,119.82 "/>
<polygon style="fill:#0092D4;" points="242.9,113.99 253.01,119.82 253.01,108.15 "/>
<polygon style="fill:#004070;" points="263.11,125.66 253.01,119.82 253.01,131.49 "/>
<polygon style="fill:#00ACE9;" points="263.11,113.99 253.01,108.15 253.01,119.82 "/>
<polygon style="fill:#0B2659;" points="253.01,119.82 263.11,125.66 263.11,113.99 "/>
<polygon style="fill:#00ACE9;" points="263.11,125.66 273.21,119.82 263.11,113.99 "/>
</svg>
