<svg width="239" height="62" viewBox="0 0 239 62" fill="none" xmlns="http://www.w3.org/2000/svg">
<g clip-path="url(#clip0_2053_40)">
<path d="M3.9917 36.2111V35.6894L4.35224 35.585C4.60731 35.4951 4.82804 35.3263 4.98319 35.1024C5.10736 34.8614 5.16518 34.5911 5.15058 34.3197C5.15058 33.4588 5.15058 32.5978 5.15058 31.7108V28.3454C5.15058 27.4714 5.15058 26.5974 5.15058 25.7365C5.15058 24.8756 5.15058 23.9885 5.15058 23.1276C5.16448 22.8451 5.1115 22.5633 4.99606 22.3058C4.84237 22.083 4.61325 21.9252 4.35224 21.8623L3.9917 21.7579V21.2753H10.2754C11.6376 21.1645 12.9972 21.518 14.1384 22.2797C14.519 22.5815 14.826 22.9677 15.0359 23.4088C15.2458 23.8498 15.3528 24.3338 15.3487 24.8234C15.3458 25.6126 15.0412 26.37 14.4989 26.9366C13.6679 27.6781 12.6269 28.1346 11.5244 28.241C12.8136 28.2935 14.0552 28.7492 15.0783 29.5454C15.4261 29.8572 15.7038 30.241 15.8927 30.6708C16.0815 31.1006 16.177 31.5665 16.1728 32.0369C16.1685 32.5797 16.0421 33.1143 15.8034 33.6003C15.5647 34.0862 15.2198 34.5107 14.7951 34.8415C14.1904 35.2977 13.5037 35.63 12.7734 35.8198C11.7269 36.0943 10.648 36.2216 9.56721 36.1981L3.9917 36.2111ZM8.34394 28.1106H9.38694C9.7809 28.1495 10.1786 28.1085 10.5567 27.9898C10.9348 27.871 11.2857 27.6771 11.5888 27.4192C12.1106 26.752 12.3554 25.9051 12.2713 25.0582C12.3518 24.2033 12.128 23.3474 11.6403 22.645C11.3819 22.3945 11.0735 22.2032 10.7358 22.0839C10.3982 21.9647 10.0392 21.9202 9.6831 21.9536H8.39545L8.34394 28.1106ZM8.34394 35.5459H9.56721C10.0176 35.5833 10.4707 35.5287 10.8999 35.3853C11.329 35.2418 11.7253 35.0126 12.0652 34.711C12.3718 34.341 12.6025 33.9128 12.744 33.4514C12.8855 32.99 12.9349 32.5048 12.8893 32.0239C12.9373 31.572 12.8923 31.115 12.7571 30.6817C12.6219 30.2484 12.3995 29.8482 12.1039 29.5063C11.3618 28.9535 10.4461 28.6938 9.52858 28.7758H8.3697L8.34394 35.5459Z" fill="white"/>
<path d="M17.2029 36.2111V35.7806L17.5377 35.6632C17.6584 35.6443 17.7741 35.6011 17.8781 35.5361C17.982 35.4712 18.072 35.3857 18.1429 35.2849C18.268 35.0633 18.3262 34.8093 18.3103 34.5544V27.9279C18.3169 27.664 18.2547 27.4031 18.13 27.1713C18.0614 27.0747 17.9729 26.9944 17.8706 26.9358C17.7684 26.8772 17.6547 26.8419 17.5377 26.8322L17.2029 26.7409V26.3234L20.834 25.019L21.1044 25.2668L21.3105 27.2496V27.4192C21.5315 26.9886 21.8135 26.5931 22.1474 26.2452C22.4746 25.894 22.8523 25.5949 23.2677 25.3581C23.6358 25.142 24.0526 25.0252 24.4781 25.019C24.7126 24.9958 24.9492 25.0247 25.1716 25.1035C25.3939 25.1823 25.5967 25.3093 25.7657 25.4755C25.908 25.6289 26.0187 25.8094 26.0917 26.0064C26.1646 26.2034 26.1983 26.4132 26.1907 26.6235C26.21 26.8317 26.1843 27.0416 26.1151 27.2387C26.046 27.4358 25.9352 27.6151 25.7904 27.7642C25.6457 27.9133 25.4705 28.0286 25.2772 28.1019C25.0839 28.1753 24.877 28.2049 24.6712 28.1888C24.3679 28.1853 24.0697 28.109 23.8011 27.9662C23.5325 27.8233 23.3011 27.618 23.1261 27.367C23.0025 27.2035 22.8236 27.092 22.6239 27.0539C22.5155 27.0528 22.4086 27.0783 22.3121 27.1283C22.2157 27.1783 22.1327 27.2513 22.0702 27.3409C21.9136 27.5031 21.7754 27.6825 21.6581 27.8757C21.5168 28.0967 21.4002 28.333 21.3105 28.5801V34.5023C21.3009 34.754 21.3635 35.0032 21.4907 35.2197C21.6371 35.4222 21.853 35.5618 22.0959 35.611L22.7655 35.8197V36.2502L17.2029 36.2111Z" fill="white"/>
<path d="M32.1525 36.5243C31.1427 36.5488 30.1441 36.306 29.2553 35.8199C28.4378 35.3637 27.7707 34.6742 27.3367 33.8372C26.8639 32.8831 26.6296 31.826 26.6542 30.7587C26.6261 29.6849 26.8793 28.6227 27.3882 27.6802C27.8446 26.8502 28.523 26.1674 29.3454 25.7105C30.2109 25.2565 31.1714 25.0195 32.146 25.0195C33.1207 25.0195 34.0811 25.2565 34.9467 25.7105C35.7729 26.1666 36.4557 26.8492 36.9167 27.6802C37.4183 28.625 37.6669 29.6864 37.6378 30.7587C37.662 31.8301 37.4277 32.8913 36.9554 33.8502C36.5299 34.6891 35.8661 35.3797 35.0497 35.833C34.1574 36.3084 33.1604 36.5463 32.1525 36.5243ZM32.1525 35.8852C32.6186 35.9017 33.0752 35.749 33.4401 35.4547C33.8407 35.0304 34.0938 34.4855 34.1612 33.9024C34.3383 32.8821 34.416 31.8466 34.393 30.8109C34.4167 29.7622 34.3391 28.7136 34.1612 27.6802C34.1033 27.0906 33.849 26.5386 33.4401 26.1149C33.08 25.8106 32.6211 25.6525 32.1525 25.6714C31.6835 25.65 31.2237 25.8083 30.8648 26.1149C30.4693 26.5478 30.2172 27.0951 30.1437 27.6802C29.9658 28.7136 29.8882 29.7622 29.912 30.8109C29.889 31.8466 29.9666 32.8821 30.1437 33.9024C30.2222 34.4822 30.4738 35.0239 30.8648 35.4547C31.2286 35.7511 31.686 35.904 32.1525 35.8852Z" fill="white"/>
<path d="M42.5438 36.5241C41.9988 36.5334 41.4583 36.4221 40.96 36.198C40.4802 35.9703 40.0869 35.5901 39.8398 35.1153C39.5284 34.4858 39.3905 33.7827 39.4406 33.0804L39.5179 27.4061C39.5405 27.1549 39.4817 26.903 39.3505 26.6887C39.2842 26.6009 39.2008 26.5279 39.1056 26.474C39.0104 26.4202 38.9053 26.3867 38.7968 26.3756L38.5264 26.2843V25.906L42.3893 25.1494L42.634 25.3973L42.5181 28.5931V33.7196C42.5012 33.9257 42.5294 34.1331 42.6006 34.327C42.6719 34.5209 42.7843 34.6965 42.9301 34.8414C43.2234 35.0844 43.5946 35.2097 43.9731 35.1936C44.372 35.1988 44.7687 35.1326 45.1449 34.9979C45.5254 34.848 45.8882 34.6555 46.2265 34.424V27.4583C46.2478 27.2103 46.1987 26.9614 46.0849 26.7408C45.941 26.5731 45.7463 26.4584 45.5312 26.4147L45.2736 26.3495V25.9451L49.0078 25.1494L49.2525 25.3973L49.1752 28.5931V34.5153C49.17 34.7735 49.2137 35.0303 49.304 35.2719C49.3589 35.3769 49.4358 35.4687 49.5291 35.5407C49.6225 35.6128 49.7302 35.6635 49.8448 35.6893L50.1409 35.7806V36.2111L46.3681 36.4328L46.1621 35.011C45.6604 35.4414 45.1066 35.8053 44.5139 36.0937C43.8967 36.383 43.2239 36.53 42.5438 36.5241Z" fill="white"/>
<path d="M55.3043 36.2763L51.8921 26.8713C51.8262 26.635 51.7022 26.4195 51.5315 26.2451C51.3534 26.0862 51.1421 25.9703 50.9135 25.906L50.54 25.7886V25.3581H55.8709V25.7886L55.5104 25.8799C55.3917 25.8926 55.2781 25.9349 55.1796 26.0031C55.0811 26.0712 55.0008 26.163 54.9459 26.2703C54.8911 26.3776 54.8633 26.497 54.8652 26.6178C54.8671 26.7386 54.8985 26.8571 54.9567 26.9626L56.9783 33.0804L58.8582 28.0453L58.5234 27.0278C58.4459 26.7678 58.3378 26.5182 58.2015 26.2843C58.0904 26.1035 57.9226 25.9657 57.7251 25.8929L57.3388 25.7625V25.332H61.9357V25.7625L61.6267 25.8799C61.5302 25.901 61.4401 25.9451 61.364 26.0086C61.2878 26.0722 61.2278 26.1533 61.1889 26.2451C61.1434 26.4781 61.1704 26.7197 61.2661 26.9365L63.3006 32.976L65.3093 26.9887C65.4896 26.4017 65.3093 26.0495 64.9102 25.919L64.4595 25.7886V25.3581H67.4597V25.7886L66.9704 25.919C66.7511 25.9784 66.5512 26.0954 66.391 26.2582C66.2316 26.4418 66.117 26.6607 66.0562 26.8974L62.8371 36.2763H61.6782L59.2445 29.0627L56.6049 36.2763H55.3043Z" fill="white"/>
<path d="M73.1899 25.0193C74.0296 24.9965 74.8603 25.199 75.5978 25.6063C76.2581 25.9805 76.7954 26.543 77.143 27.2238C77.5188 27.9518 77.7092 28.7634 77.6967 29.5848C77.6967 29.7805 77.6967 29.9631 77.6967 30.1327C77.6815 30.3004 77.6513 30.4663 77.6065 30.6284H70.8593C70.7716 31.8078 71.0753 32.9831 71.722 33.9678C72.026 34.3154 72.4045 34.5879 72.8286 34.7643C73.2527 34.9407 73.7111 35.0163 74.1685 34.9852C74.7897 35.0122 75.4081 34.8869 75.9712 34.62C76.4601 34.3497 76.8964 33.9917 77.2589 33.5634L77.6194 33.9025C77.1951 34.7029 76.5628 35.3705 75.791 35.8331C74.9598 36.3101 74.0161 36.5491 73.0612 36.5245C72.0915 36.5479 71.1327 36.314 70.2798 35.8462C69.4737 35.3953 68.8157 34.715 68.387 33.8895C67.9107 32.9413 67.6761 31.8875 67.7045 30.8241C67.6581 29.726 67.9168 28.6368 68.4514 27.6804C68.9527 26.878 69.647 26.2178 70.469 25.7615C71.291 25.3052 72.214 25.0678 73.1513 25.0715L73.1899 25.0193ZM73.074 25.6715C72.665 25.6647 72.2658 25.798 71.9409 26.0498C71.5659 26.399 71.3015 26.8529 71.1812 27.3543C70.974 28.2082 70.866 29.0838 70.8593 29.9631H74.8896C75.0895 28.8649 75.0322 27.7346 74.7222 26.6629C74.5904 26.3392 74.3585 26.0676 74.0613 25.8888C73.7641 25.71 73.4177 25.6338 73.074 25.6715Z" fill="white"/>
<path d="M78.8296 36.2111V35.7806L79.1644 35.6632C79.4105 35.6215 79.6316 35.4862 79.7825 35.2849C79.8995 35.0601 79.9571 34.8085 79.9498 34.5544V27.9279C79.9437 27.6655 79.8823 27.4076 79.7696 27.1713C79.6978 27.0749 79.6068 26.995 79.5026 26.9365C79.3983 26.8781 79.2831 26.8425 79.1644 26.8321L78.8296 26.7408V26.3234L82.4608 25.019L82.7312 25.2668L82.9372 27.2496V27.4191C83.1585 26.9854 83.4452 26.5893 83.787 26.2451C84.107 25.8914 84.4808 25.5919 84.8944 25.3581C85.2641 25.1456 85.6799 25.0291 86.1048 25.019C86.3392 24.9967 86.5756 25.0259 86.7979 25.1047C87.0201 25.1835 87.2229 25.31 87.3924 25.4755C87.5347 25.6289 87.6455 25.8093 87.7184 26.0064C87.7913 26.2034 87.825 26.4131 87.8174 26.6234C87.8322 26.8364 87.8019 27.0502 87.7287 27.2504C87.6554 27.4506 87.5408 27.6327 87.3924 27.7844C87.1127 28.0476 86.7441 28.1923 86.3623 28.1888C86.0594 28.1832 85.7619 28.106 85.4936 27.9633C85.2253 27.8207 84.9937 27.6164 84.8171 27.367C84.6936 27.2034 84.5147 27.0919 84.315 27.0539C84.2066 27.0528 84.0997 27.0783 84.0032 27.1283C83.9068 27.1783 83.8238 27.2512 83.7613 27.3409C83.6047 27.5031 83.4665 27.6825 83.3492 27.8757C83.2174 28.1001 83.1054 28.3358 83.0144 28.5801V34.5022C83.001 34.7527 83.0591 35.0018 83.1818 35.2197C83.3315 35.4186 83.5459 35.5572 83.787 35.611L84.4566 35.8197V36.2502L78.8296 36.2111Z" fill="white"/>
<path d="M14.431 58.191H11.5254L10.5521 61H10L12.9056 53H13.2252L16 61H15.4479L14.431 58.191ZM11.7579 57.6817H14.2712L13.3124 54.8234C13.3124 54.5934 13.138 54.2813 13.0218 53.8706C12.9472 54.1944 12.8551 54.5126 12.7458 54.8234L11.7579 57.6817Z" fill="white" stroke="white" stroke-width="0.4"/>
<path d="M26.9911 56.926C27.0243 57.4782 26.9644 58.0327 26.8152 58.5558C26.6659 59.079 26.4305 59.5598 26.1231 59.9691C25.4173 60.7035 24.5009 61.07 23.5733 60.9889H22V53.0112H23.7767C24.2122 52.971 24.6497 53.0393 25.0626 53.2118C25.4754 53.3844 25.8548 53.6576 26.1774 54.0146C26.4667 54.4092 26.6877 54.8702 26.8275 55.3703C26.9673 55.8704 27.0229 56.3994 26.9911 56.926ZM26.5029 56.926C26.5303 56.4618 26.4809 55.9956 26.3574 55.5549C26.2339 55.1142 26.039 54.7079 25.784 54.36C25.4985 54.0484 25.1637 53.8105 24.8 53.6606C24.4362 53.5107 24.0512 53.4521 23.6682 53.4882H22.4611V60.4954H23.5055C23.908 60.5749 24.3202 60.5386 24.709 60.3894C25.0978 60.2403 25.4523 59.9825 25.7439 59.6368C26.0355 59.2912 26.2561 58.8673 26.3879 58.3993C26.5198 57.9313 26.5591 57.4323 26.5029 56.9425V56.926Z" fill="white" stroke="white" stroke-width="0.4"/>
<path d="M38.3393 53H39L35.75 61H35.2321L32 53H32.6429L34.8214 58.4433C35.1607 59.268 35.375 59.8783 35.5 60.2907C35.5 60.0268 35.7321 59.5979 35.9643 59.0206L38.3393 53Z" fill="white" stroke="white" stroke-width="0.4"/>
<path d="M49.9931 57C50.0532 58.0558 49.721 59.0968 49.0593 59.9254C48.7403 60.2823 48.3447 60.5638 47.9018 60.7491C47.4589 60.9344 46.9798 61.019 46.4997 60.9964C46.0196 61.019 45.5405 60.9344 45.0976 60.7491C44.6547 60.5638 44.2591 60.2823 43.94 59.9254C43.2826 59.0884 42.9511 58.0441 43.0063 56.984C42.9486 55.9308 43.2871 54.8939 43.9561 54.0746C44.2752 53.7177 44.6707 53.4362 45.1137 53.2509C45.5566 53.0656 46.0357 52.981 46.5158 53.0036C46.9959 52.981 47.475 53.0656 47.9179 53.2509C48.3608 53.4362 48.7564 53.7177 49.0754 54.0746C49.7247 54.9089 50.0504 55.9471 49.9931 57ZM43.5537 57C43.4986 57.919 43.766 58.8285 44.3103 59.5737C44.5708 59.881 44.9002 60.1234 45.272 60.2816C45.6437 60.4398 46.0477 60.5095 46.4514 60.4849C46.8558 60.5078 47.2601 60.4391 47.6338 60.284C48.0075 60.1289 48.3408 59.8915 48.6086 59.5897C49.1496 58.8375 49.4113 57.9223 49.3491 57C49.4143 56.0824 49.1522 55.1712 48.6086 54.4263C48.3295 54.1406 47.9954 53.9135 47.6263 53.7583C47.2571 53.6032 46.8603 53.5233 46.4594 53.5233C46.0586 53.5233 45.6618 53.6032 45.2926 53.7583C44.9235 53.9135 44.5894 54.1406 44.3103 54.4263C43.7769 55.1748 43.5261 56.0861 43.602 57H43.5537Z" fill="white" stroke="white" stroke-width="0.4"/>
<path d="M59.9078 53.4977C59.4594 53.474 59.0111 53.545 58.5946 53.7055C58.1781 53.8661 57.8036 54.1123 57.4976 54.4267C56.8869 55.1489 56.5769 56.0618 56.6272 56.9896C56.5723 57.9151 56.863 58.8291 57.4473 59.5685C57.7468 59.8822 58.1154 60.1283 58.5265 60.289C58.9375 60.4496 59.3807 60.5209 59.8241 60.4975C60.4586 60.499 61.09 60.4127 61.6987 60.2412V60.7217C61.0493 60.917 60.3708 61.009 59.6902 60.994C59.1868 61.0235 58.683 60.9437 58.2164 60.7606C57.7497 60.5775 57.3324 60.296 56.9954 59.9369C56.2936 59.1005 55.9417 58.0443 56.0079 56.9736C55.9994 56.2546 56.1595 55.5431 56.4766 54.8912C56.7704 54.306 57.2433 53.82 57.8323 53.4977C58.4525 53.156 59.1589 52.9842 59.8743 53.0011C60.608 52.9891 61.3349 53.137 62 53.4336L61.7824 53.9142C61.2009 53.635 60.5583 53.4922 59.9078 53.4977Z" fill="white" stroke="white" stroke-width="0.4"/>
<path d="M71.1814 58.191H67.75L66.6005 61H66L69.3456 53H69.723L73 61H72.348L71.1814 58.191ZM68.0073 57.6817H70.9926L69.8603 54.8234C69.7574 54.5934 69.6544 54.2813 69.5171 53.8706C69.4291 54.1944 69.3202 54.5126 69.1912 54.8234L68.0073 57.6817Z" fill="white" stroke="white" stroke-width="0.4"/>
<path d="M80.7364 61H80.2493V53.5278H78V53H83V53.5278H80.7364V61Z" fill="white" stroke="white" stroke-width="0.4"/>
<path d="M93 61H88V53H93V53.5113H88.6415V56.5464H92.7547V57.0577H88.6415V60.4887H93V61Z" fill="white" stroke="white" stroke-width="0.4"/>
<path d="M103.949 61H103.441L98.5593 53.8907C98.5593 54.7485 98.5593 55.3918 98.5593 55.8206V61H98V53H98.5763L103.441 60.0928C103.441 59.433 103.441 58.8062 103.441 58.2289V53H104L103.949 61Z" fill="white" stroke="white" stroke-width="0.4"/>
<path d="M118.003 58.9178C117.993 58.4716 118.13 58.0341 118.395 57.6709C118.819 57.2176 119.328 56.8485 119.895 56.5839L119.487 56.1522C119.27 55.9363 119.088 55.6882 118.949 55.4169C118.839 55.1813 118.783 54.9247 118.786 54.6655C118.778 54.4395 118.819 54.2143 118.906 54.0049C118.993 53.7955 119.124 53.6065 119.292 53.4506C119.684 53.1428 120.176 52.9838 120.678 53.003C121.163 52.9761 121.641 53.1303 122.015 53.4346C122.177 53.5901 122.305 53.7771 122.389 53.9835C122.473 54.19 122.513 54.4114 122.505 54.6336C122.505 55.0071 122.373 55.3691 122.13 55.6567C121.729 56.0646 121.267 56.4097 120.76 56.6798L123.206 59.1097C123.421 58.8528 123.607 58.5741 123.76 58.2784C123.936 57.9372 124.073 57.578 124.168 57.2073H124.69C124.484 58.032 124.094 58.8017 123.548 59.4613L125 60.8841H124.266L123.222 59.845C122.958 60.1081 122.662 60.339 122.342 60.5324C122.076 60.6932 121.783 60.8068 121.477 60.8681C121.136 60.9549 120.785 60.9979 120.433 60.996C119.793 61.0308 119.162 60.8378 118.656 60.4525C118.435 60.2618 118.262 60.0245 118.149 59.7587C118.036 59.4929 117.986 59.2053 118.003 58.9178ZM120.466 60.5164C120.9 60.5175 121.331 60.4417 121.738 60.2926C122.162 60.1072 122.545 59.8409 122.863 59.5093L120.254 56.9356C119.876 57.1138 119.521 57.3337 119.194 57.591C118.993 57.7464 118.832 57.9461 118.724 58.1739C118.617 58.4016 118.565 58.651 118.574 58.9018C118.568 59.1214 118.609 59.3397 118.693 59.5433C118.777 59.7468 118.903 59.9311 119.063 60.0848C119.462 60.3906 119.96 60.544 120.466 60.5164ZM119.357 54.6496C119.352 54.9199 119.425 55.1861 119.569 55.4169C119.807 55.7578 120.086 56.0692 120.401 56.3441C120.847 56.1351 121.25 55.8479 121.591 55.4968C121.815 55.2505 121.937 54.9314 121.934 54.6016C121.938 54.4522 121.909 54.3037 121.85 54.1659C121.791 54.0281 121.703 53.9042 121.591 53.8023C121.342 53.5817 121.014 53.4668 120.678 53.4826C120.327 53.4643 119.983 53.5788 119.716 53.8023C119.593 53.9064 119.496 54.0372 119.434 54.1843C119.372 54.3314 119.345 54.4907 119.357 54.6496Z" fill="white" stroke="white" stroke-width="0.4"/>
<path d="M140.336 61L137.517 53.6103C137.517 54.0722 137.517 54.534 137.517 55.0124V61H137V53H137.814L140.508 60.0433L143.201 53H144V61H143.468V54.9464C143.445 54.5069 143.445 54.0663 143.468 53.6268L140.633 61H140.336Z" fill="white" stroke="white" stroke-width="0.4"/>
<path d="M155 61H151V53H155V53.5113H151.513V56.5464H154.804V57.0577H151.513V60.4887H155V61Z" fill="white" stroke="white" stroke-width="0.4"/>
<path d="M166.975 56.9338C167.011 57.4847 166.938 58.0373 166.76 58.5591C166.582 59.0809 166.303 59.5613 165.939 59.972C165.094 60.7006 164.001 61.0659 162.895 60.9902H161V53.0251H163.121C163.642 52.9616 164.171 53.019 164.667 53.193C165.163 53.3669 165.614 53.6529 165.985 54.0294C166.356 54.4058 166.638 54.8629 166.81 55.366C166.981 55.8691 167.038 56.4052 166.975 56.9338ZM166.376 56.9338C166.409 56.4702 166.35 56.0048 166.202 55.5647C166.055 55.1247 165.822 54.7191 165.518 54.3718C165.177 54.0599 164.778 53.8218 164.343 53.6721C163.909 53.5224 163.449 53.4643 162.992 53.5014H161.551V60.4975H162.862C163.338 60.5654 163.823 60.5206 164.278 60.3666C164.734 60.2126 165.148 59.9536 165.489 59.6099C165.829 59.2662 166.086 58.8472 166.24 58.3857C166.394 57.9243 166.441 57.4329 166.376 56.9502V56.9338Z" fill="white" stroke="white" stroke-width="0.4"/>
<path d="M173 61V53H173.6V61H173Z" fill="white" stroke="white" stroke-width="0.4"/>
<path d="M183.412 58.191H180.471L179.544 61H179L181.868 53H182.176L185 61H184.426L183.412 58.191ZM180.691 57.6817H183.25L182.279 54.8234C182.191 54.5934 182.103 54.2813 181.985 53.8706C181.905 54.1948 181.807 54.5131 181.691 54.8234L180.691 57.6817Z" fill="white" stroke="white" stroke-width="0.4"/>
<path d="M192.721 61H192.236V53.5278H190V53H195V53.5278H192.721V61Z" fill="white" stroke="white" stroke-width="0.4"/>
<path d="M206.988 57C207.067 58.0477 206.755 59.0878 206.109 59.9254C205.787 60.2823 205.387 60.5638 204.939 60.7491C204.492 60.9344 204.008 61.019 203.522 60.9964C203.037 61.019 202.553 60.9344 202.105 60.7491C201.657 60.5638 201.258 60.2823 200.935 59.9254C200.277 59.0862 199.947 58.0421 200.008 56.984C199.943 55.9327 200.28 54.8954 200.952 54.0746C201.274 53.7177 201.674 53.4362 202.121 53.2509C202.569 53.0656 203.053 52.981 203.539 53.0036C204.024 52.981 204.508 53.0656 204.956 53.2509C205.403 53.4362 205.803 53.7177 206.126 54.0746C206.759 54.9176 207.064 55.9551 206.988 57ZM200.48 57C200.424 57.919 200.694 58.8285 201.244 59.5737C201.508 59.881 201.841 60.1234 202.216 60.2816C202.592 60.4398 203 60.5095 203.408 60.4849C203.817 60.5102 204.227 60.4426 204.605 60.2873C204.983 60.1321 205.32 59.8934 205.589 59.5897C206.135 58.8375 206.4 57.9223 206.337 57C206.403 56.0824 206.138 55.1712 205.589 54.4263C205.307 54.1406 204.969 53.9135 204.596 53.7583C204.223 53.6032 203.822 53.5233 203.417 53.5233C203.011 53.5233 202.61 53.6032 202.237 53.7583C201.864 53.9135 201.526 54.1406 201.244 54.4263C200.705 55.1748 200.452 56.0861 200.528 57H200.48Z" fill="white" stroke="white" stroke-width="0.4"/>
<path d="M214.425 57.5405V61H214V53.0101H215.45C216.034 52.9523 216.617 53.1429 217.113 53.5538C217.294 53.7531 217.438 54.0062 217.531 54.2925C217.625 54.5788 217.665 54.8902 217.65 55.2012C217.664 55.6849 217.554 56.1607 217.338 56.552C217.079 56.9443 216.733 57.2207 216.35 57.3428L218 60.9835H217.5L215.975 57.5405H214.425ZM214.425 57.0627H215.588C216.012 57.0919 216.431 56.9292 216.775 56.6015C216.918 56.4363 217.031 56.2303 217.105 55.9991C217.178 55.7678 217.211 55.5175 217.2 55.2671C217.216 55.0199 217.187 54.7712 217.116 54.5418C217.044 54.3125 216.931 54.1092 216.787 53.9492C216.376 53.6299 215.901 53.4861 215.425 53.5373H214.425V57.0627Z" fill="white" stroke="white" stroke-width="0.4"/>
<path d="M228.945 58.8163C228.974 59.1211 228.922 59.4279 228.795 59.7081C228.667 59.9882 228.469 60.2325 228.218 60.4182C227.65 60.8257 226.955 61.0296 226.249 60.9948C225.485 61.0258 224.722 60.9171 224 60.6745V60.1298C224.706 60.3959 225.459 60.5212 226.216 60.4983C226.772 60.5217 227.319 60.3638 227.771 60.0497C227.958 59.9183 228.108 59.7444 228.209 59.5432C228.31 59.3421 228.359 59.1199 228.35 58.8964C228.357 58.6447 228.294 58.3958 228.168 58.1756C228.001 57.9566 227.787 57.7761 227.539 57.647C227.133 57.4372 226.706 57.2655 226.266 57.1344C225.652 56.9587 225.087 56.6522 224.612 56.2373C224.452 56.0669 224.328 55.8672 224.248 55.6499C224.169 55.4326 224.135 55.202 224.149 54.9719C224.142 54.6983 224.202 54.4271 224.322 54.1796C224.443 53.9321 224.621 53.7153 224.844 53.5462C225.37 53.1723 226.011 52.9804 226.663 53.0016C227.396 53.0003 228.121 53.1419 228.796 53.4181L228.581 53.8826C227.982 53.6255 227.335 53.4892 226.679 53.4821C226.172 53.4523 225.669 53.5939 225.257 53.8826C225.084 54.0092 224.946 54.1745 224.854 54.3642C224.762 54.5539 224.719 54.7624 224.728 54.9719C224.727 55.2159 224.783 55.457 224.893 55.6767C225.029 55.8786 225.21 56.0484 225.422 56.1733C225.825 56.3849 226.245 56.5618 226.679 56.7019C227.178 56.8466 227.656 57.0511 228.102 57.3106C228.394 57.4664 228.633 57.7003 228.791 57.9844C228.95 58.2684 229.02 58.5906 228.995 58.9124L228.945 58.8163Z" fill="white" stroke="white" stroke-width="0.4"/>
<path d="M145.71 36.2111V35.7545L153.436 21.9405H149.29C148.889 21.9233 148.495 22.0428 148.169 22.2797C147.862 22.5423 147.613 22.8666 147.435 23.2319L146.495 25.019H145.903L146.058 21.2622H156.925V21.7188L149.199 35.5328H153.951C154.346 35.5545 154.735 35.4292 155.045 35.1806C155.346 34.9029 155.587 34.5654 155.754 34.1892L156.668 32.4543H157.299L157.144 36.2111H145.71Z" fill="white"/>
<path d="M163.737 36.5243C162.731 36.5471 161.737 36.3043 160.853 35.8199C160.035 35.3637 159.368 34.6742 158.934 33.8372C158.461 32.8831 158.227 31.826 158.252 30.7587C158.223 29.6849 158.477 28.6227 158.986 27.6802C159.442 26.8502 160.12 26.1674 160.943 25.7105C161.808 25.2565 162.769 25.0195 163.743 25.0195C164.718 25.0195 165.679 25.2565 166.544 25.7105C167.369 26.1639 168.048 26.8475 168.501 27.6802C169.013 28.6215 169.267 29.6846 169.235 30.7587C169.259 31.8301 169.025 32.8913 168.553 33.8502C168.123 34.6863 167.461 35.3759 166.647 35.833C165.751 36.31 164.749 36.548 163.737 36.5243ZM163.737 35.8852C164.203 35.9005 164.659 35.748 165.025 35.4547C165.425 35.0304 165.678 34.4855 165.746 33.9024C165.923 32.8821 166 31.8466 165.978 30.8109C166.001 29.7622 165.924 28.7136 165.746 27.6802C165.688 27.0906 165.433 26.5386 165.025 26.1149C164.664 25.8117 164.205 25.6538 163.737 25.6714C163.268 25.6474 162.807 25.806 162.449 26.1149C162.054 26.5478 161.802 27.0951 161.728 27.6802C161.538 28.7122 161.456 29.7615 161.484 30.8109C161.457 31.8473 161.539 32.8835 161.728 33.9024C161.807 34.4822 162.058 35.0239 162.449 35.4547C162.811 35.7543 163.27 35.9077 163.737 35.8852Z" fill="white"/>
<path d="M173.832 36.4982L170.175 36.2112V35.7808H170.407C170.666 35.7419 170.899 35.6037 171.06 35.3948C171.221 35.1859 171.296 34.9224 171.27 34.659V22.919C171.287 22.6723 171.229 22.4263 171.102 22.2146C170.954 22.019 170.738 21.8883 170.497 21.8494L170.201 21.7841V21.3406L174.064 20.3623L174.36 20.571L174.27 23.7538V26.1279C175.273 25.4249 176.463 25.0473 177.682 25.0452C178.268 25.0309 178.85 25.1473 179.386 25.3863C179.922 25.6252 180.4 25.9809 180.785 26.4279C181.698 27.6586 182.133 29.1856 182.009 30.7196C182.042 31.8268 181.831 32.9276 181.391 33.9415C181.023 34.7386 180.443 35.4162 179.717 35.8982C179.018 36.328 178.216 36.5537 177.399 36.5504C176.83 36.5482 176.263 36.4737 175.712 36.3286C175.18 36.1876 174.678 35.9488 174.231 35.6242L173.832 36.4982ZM176.279 35.5329C176.743 35.5377 177.196 35.3863 177.566 35.1025C177.994 34.7106 178.295 34.1967 178.429 33.6285C178.663 32.6998 178.767 31.7426 178.738 30.7848C178.768 29.8327 178.673 28.8807 178.455 27.9541C178.336 27.4007 178.042 26.9016 177.618 26.5323C177.244 26.2586 176.792 26.1166 176.33 26.1279C175.605 26.1423 174.896 26.3444 174.27 26.7149V34.959C174.873 35.3372 175.569 35.5361 176.279 35.5329Z" fill="white"/>
<path d="M186.915 36.5241C186.37 36.5334 185.829 36.4221 185.331 36.198C184.851 35.9703 184.458 35.5901 184.211 35.1153C183.908 34.4923 183.775 33.799 183.824 33.1065V27.4322C183.842 27.183 183.788 26.934 183.67 26.7147C183.601 26.6272 183.515 26.5544 183.417 26.5007C183.32 26.4469 183.213 26.4133 183.103 26.4017L182.846 26.3104V25.906L186.709 25.1494L186.953 25.3973L186.837 28.5931V33.7196C186.821 33.9257 186.849 34.1331 186.92 34.327C186.991 34.5209 187.104 34.6965 187.249 34.8414C187.545 35.0802 187.915 35.205 188.292 35.1936C188.691 35.1988 189.088 35.1326 189.464 34.9979C189.845 34.848 190.208 34.6555 190.546 34.424L190.61 27.4583C190.632 27.2103 190.582 26.9614 190.469 26.7408C190.325 26.5731 190.13 26.4584 189.915 26.4147L189.67 26.3495V25.9451L193.404 25.1494L193.649 25.3973L193.585 28.5931V34.5153C193.576 34.7726 193.615 35.0293 193.701 35.2719C193.758 35.3773 193.837 35.4691 193.933 35.5411C194.028 35.6131 194.138 35.6636 194.254 35.6893L194.538 35.7806V36.2111L190.765 36.4328L190.572 35.011C190.066 35.4424 189.508 35.8062 188.911 36.0937C188.285 36.3868 187.603 36.5339 186.915 36.5241Z" fill="white"/>
<path d="M200.873 36.5243C199.863 36.547 198.865 36.3043 197.975 35.8199C197.161 35.36 196.495 34.6715 196.057 33.8372C195.584 32.8831 195.35 31.826 195.374 30.7587C195.346 29.6849 195.6 28.6227 196.108 27.6802C196.565 26.8502 197.243 26.1674 198.066 25.7105C198.931 25.2565 199.892 25.0195 200.866 25.0195C201.841 25.0195 202.801 25.2565 203.667 25.7105C204.493 26.1666 205.176 26.8492 205.637 27.6802C206.138 28.625 206.387 29.6864 206.358 30.7587C206.382 31.8301 206.148 32.8913 205.676 33.8502C205.25 34.6891 204.586 35.3797 203.77 35.833C202.878 36.3084 201.881 36.5463 200.873 36.5243ZM200.873 35.8852C201.339 35.9017 201.795 35.749 202.16 35.4547C202.561 35.0304 202.814 34.4855 202.881 33.9024C203.059 32.8821 203.136 31.8466 203.113 30.8109C203.137 29.7622 203.059 28.7136 202.881 27.6802C202.823 27.0906 202.569 26.5386 202.16 26.1149C201.8 25.8106 201.341 25.6525 200.873 25.6714C200.404 25.65 199.944 25.8083 199.585 26.1149C199.19 26.5478 198.937 27.0951 198.864 27.6802C198.686 28.7136 198.608 29.7622 198.632 30.8109C198.609 31.8466 198.687 32.8821 198.864 33.9024C198.942 34.4822 199.194 35.0239 199.585 35.4547C199.949 35.7511 200.406 35.904 200.873 35.8852Z" fill="white"/>
<path d="M212.204 32.3369C211.32 32.3713 210.439 32.2018 209.629 31.8413V32.6631C209.614 32.8597 209.676 33.0542 209.801 33.2053C209.926 33.3563 210.105 33.452 210.298 33.4718L214.277 34.2153C214.96 34.3481 215.632 34.5357 216.286 34.7762C216.813 34.9512 217.281 35.272 217.638 35.7024C217.989 36.1635 218.163 36.7384 218.127 37.3199C218.123 38.0532 217.878 38.7644 217.432 39.3418C216.904 40.0324 216.207 40.5719 215.41 40.9071C214.315 41.3189 213.153 41.5138 211.985 41.4811C211.035 41.5122 210.087 41.3844 209.178 41.1028C208.606 40.9329 208.093 40.6028 207.697 40.1505C207.403 39.7812 207.244 39.3205 207.247 38.8461C207.263 38.2582 207.457 37.6895 207.8 37.2155C208.176 36.6841 208.659 36.2395 209.217 35.9111C208.302 35.5589 207.852 35.0111 207.852 34.2545C207.848 33.9794 207.92 33.7086 208.058 33.4718C208.199 33.2136 208.362 32.9691 208.547 32.7413L209.345 31.7239C208.83 31.4332 208.405 31.0014 208.121 30.4777C207.836 29.954 207.703 29.3597 207.736 28.7628C207.727 28.2682 207.827 27.7779 208.027 27.3268C208.227 26.8758 208.524 26.4752 208.895 26.1539C209.838 25.4158 211.015 25.0538 212.204 25.1364C213.404 25.0585 214.592 25.4196 215.552 26.1539C215.993 26.0796 216.425 25.9571 216.84 25.7887C217.255 25.6189 217.646 25.3906 217.998 25.1104L218.307 25.3452V26.6496H215.9C216.388 27.2761 216.643 28.0564 216.621 28.8541C216.632 29.349 216.534 29.8403 216.334 30.2918C216.133 30.7432 215.835 31.1435 215.462 31.463C214.513 32.138 213.358 32.4479 212.204 32.3369ZM208.998 38.1678C208.971 38.5185 209.028 38.8706 209.162 39.1949C209.296 39.5193 209.505 39.8066 209.77 40.0331C210.51 40.51 211.382 40.7298 212.256 40.6593C213.219 40.7289 214.181 40.5113 215.024 40.0331C215.303 39.8657 215.533 39.6267 215.691 39.3405C215.849 39.0542 215.93 38.7307 215.925 38.4026C215.937 38.2124 215.902 38.0222 215.824 37.8492C215.745 37.6761 215.625 37.5256 215.475 37.4112C215.013 37.1057 214.489 36.9095 213.942 36.8373L209.951 36.0546H209.77C209.538 36.3741 209.352 36.7255 209.217 37.0982C209.08 37.4382 209.006 37.8007 208.998 38.1678ZM212.165 31.776C212.439 31.7934 212.711 31.733 212.953 31.6016C213.194 31.4702 213.394 31.2731 213.53 31.0325C213.876 30.2973 214.027 29.4836 213.968 28.6715C214.025 27.8776 213.878 27.0825 213.543 26.3626C213.395 26.1473 213.197 25.9715 212.968 25.8501C212.738 25.7287 212.483 25.6653 212.223 25.6653C211.964 25.6653 211.709 25.7287 211.479 25.8501C211.249 25.9715 211.052 26.1473 210.904 26.3626C210.556 27.0926 210.405 27.9026 210.466 28.7106C210.409 29.5102 210.546 30.3118 210.865 31.0456C210.991 31.2795 211.18 31.4724 211.411 31.6017C211.641 31.731 211.903 31.7915 212.165 31.776Z" fill="white"/>
<path d="M219.106 36.211V35.7806L219.441 35.6893C219.674 35.6153 219.874 35.4617 220.008 35.2548C220.142 35.0479 220.201 34.8004 220.175 34.5544C220.175 34.0457 220.175 33.5239 220.175 33.0021C220.175 32.4803 220.175 31.9716 220.175 31.4629V22.8666C220.189 22.6218 220.136 22.3776 220.02 22.1622C219.864 21.9779 219.651 21.8535 219.415 21.81L219.08 21.7187V21.3404L222.943 20.3882L223.239 20.5969L223.149 23.7797V34.6066C223.152 34.861 223.213 35.1113 223.329 35.3371C223.397 35.4408 223.484 35.5299 223.585 35.5994C223.687 35.6688 223.801 35.7171 223.922 35.7414L224.244 35.8327V36.2632L219.106 36.211Z" fill="white"/>
<path d="M229.162 36.5241C228.617 36.5334 228.077 36.4221 227.579 36.198C227.099 35.9703 226.705 35.5901 226.458 35.1153C226.147 34.4858 226.009 33.7827 226.059 33.0804V27.4061C226.077 27.1569 226.023 26.9079 225.905 26.6887C225.838 26.6009 225.755 26.5279 225.66 26.474C225.565 26.4202 225.459 26.3867 225.351 26.3756L225.081 26.2843V25.906L228.944 25.1494L229.201 25.3973L229.085 28.5931V33.7196C229.068 33.9258 229.096 34.1331 229.168 34.327C229.239 34.5209 229.351 34.6965 229.497 34.8414C229.79 35.0844 230.162 35.2097 230.54 35.1936C230.935 35.1989 231.327 35.1327 231.699 34.9979C232.085 34.851 232.452 34.6583 232.794 34.424L232.858 27.4583C232.881 27.2087 232.827 26.9581 232.703 26.7408C232.568 26.5698 232.376 26.4541 232.163 26.4147L231.918 26.3495V25.9451L235.639 25.1494L235.884 25.3973V28.5931V34.5153C235.872 34.774 235.916 35.0321 236.013 35.2719C236.068 35.3769 236.144 35.4687 236.238 35.5407C236.331 35.6128 236.439 35.6635 236.554 35.6893L236.85 35.7806V36.2111L233.077 36.4328L232.871 35.011C232.369 35.4414 231.815 35.8053 231.223 36.0937C230.578 36.3965 229.873 36.5439 229.162 36.5241Z" fill="white"/>
<path d="M110.944 25.5279C112.012 26.128 112.412 26.7671 112.399 27.1976C112.385 26.7802 112.286 26.3702 112.109 25.9932C111.932 25.6161 111.68 25.2801 111.369 25.0062C111.101 24.7439 110.78 24.5437 110.429 24.4192C110.596 23.5191 110.789 21.9668 110.854 21.4189C110.59 22.5444 109.965 23.5493 109.077 24.2757C108.574 24.3351 108.084 24.4714 107.622 24.68L108.021 25.5671C108.476 25.3477 108.974 25.2306 109.478 25.2238C109.982 25.2171 110.482 25.3208 110.944 25.5279Z" fill="white"/>
<path d="M126.048 26.0105H127.477C126.916 24.7661 126.293 23.5514 125.61 22.3711C126.116 23.5115 126.268 24.7804 126.048 26.0105Z" fill="white"/>
<path d="M137.07 42.7063V41.741C137.289 38.1016 135.679 31.5273 135.267 29.8967C136.183 29.4812 137.069 29.0018 137.92 28.4618C135.911 29.1974 133.807 29.6367 131.675 29.7663C128.752 29.5576 126.279 29.4532 124.824 28.6053C124.168 28.214 123.743 26.9356 123.253 25.4747C122.841 24.2485 122.726 22.9441 122.159 21.5614C120.511 17.5045 120.562 15.9131 121.489 15.2348C121.973 14.7563 122.611 14.4715 123.286 14.4332C123.96 14.3948 124.626 14.6054 125.159 15.0261C124.542 14.4086 123.721 14.0459 122.854 14.0087L123.344 13.9304C123.089 12.3661 122.994 10.7793 123.06 9.19527C123.06 9.01265 123.06 8.80394 123.06 8.58218C123.228 6.57335 123.498 3.22094 125.133 2.05999C125.599 1.78403 126.116 1.60703 126.652 1.53975C127.188 1.47248 127.731 1.51633 128.25 1.66865C128.759 1.72063 129.249 1.89504 129.679 2.17739C129.859 2.34696 129.808 2.56872 129.782 2.79047C129.742 2.94487 129.712 3.10173 129.692 3.26007L130.323 3.40356C130.477 3.48183 131.61 4.17318 131.61 7.42123V8.45174C131.619 10.5829 131.372 12.7072 130.876 14.7783L130.786 14.9609C130.619 15.5479 130.439 16.1349 130.207 16.7219C130.606 16.1479 131.005 15.587 131.379 15.0131C131.897 15.2297 132.372 15.539 132.782 15.9262C134.089 17.3544 135.179 18.9724 136.014 20.7265C136.403 21.5016 136.833 22.2549 137.302 22.9832C137.675 23.4919 139.259 24.992 139.169 25.6703C138.95 27.1704 138.422 27.7444 136.967 27.64C135.97 27.4912 135 27.2014 134.083 26.7791C133.473 26.4568 132.84 26.1821 132.19 25.9573C133.662 26.893 135.223 27.6753 136.851 28.2923C137.152 28.403 137.47 28.4604 137.791 28.4618C138.206 28.4641 138.612 28.3465 138.963 28.1227C139.469 27.8455 139.887 27.429 140.17 26.9212C140.452 26.4134 140.587 25.8351 140.559 25.2529C140.559 24.4703 139.001 22.4353 138.692 22.0179C138.247 21.3526 137.843 20.6599 137.482 19.9439C136.608 18.0071 135.405 16.241 133.928 14.7261C133.403 14.3193 132.816 14.0021 132.19 13.7869C132.633 12.8778 132.937 11.9058 133.091 10.9041C133.227 9.76594 133.282 8.61954 133.259 7.47341C133.259 4.09491 132.113 2.69916 131.263 2.41218C131.295 2.06647 131.217 1.71935 131.041 1.42137C130.865 1.1234 130.6 0.890129 130.284 0.755547C129.358 0.323982 128.354 0.0887161 127.335 0.0641937C126.288 -0.000425003 125.248 0.283571 124.374 0.872947C122.159 2.47741 121.798 6.27333 121.657 8.54305C121.657 8.76481 121.657 8.96047 121.657 9.14309C121.574 10.8529 121.669 12.5668 121.94 14.2565C121.602 14.3605 121.278 14.505 120.974 14.687C118.579 16.0958 120.24 19.996 120.974 22.4092C121.348 23.7137 121.567 24.9138 121.953 26.0747C122.255 27.4018 122.86 28.639 123.717 29.688L124 32.9882C123.274 33.8936 122.751 34.9486 122.468 36.0798C122.129 38.2948 122.094 40.5468 122.365 42.7715H115.927C115.947 41.252 115.716 39.7398 115.244 38.2973C114.864 36.8904 114.236 35.5647 113.39 34.384C113.294 33.8142 113.229 33.2393 113.197 32.6621C113.197 31.8664 113.081 30.7055 113.017 30.0533H113.48C115.566 29.688 115.695 26.466 115.798 24.105C115.798 23.5441 115.798 23.0615 115.875 22.8006C116.09 21.8356 116.414 20.8989 116.841 20.0091C117.017 19.7406 117.125 19.432 117.154 19.1109C117.183 18.7898 117.133 18.4664 117.008 18.1698C117.781 17.061 117.614 14.7913 117.008 13.1216C116.777 12.4564 116.571 11.9868 116.416 11.6215C116.07 10.9168 115.893 10.139 115.901 9.3518V9.07787C115.955 6.8936 115.202 4.76762 113.789 3.11658C113.151 2.19857 112.211 1.54165 111.137 1.26428C110.684 1.13411 110.21 1.10168 109.744 1.16909C109.278 1.2365 108.831 1.40225 108.433 1.65561C108.433 1.65561 107.982 2.28174 107.969 2.2687C107.601 2.09932 107.202 2.01169 106.797 2.01169C106.393 2.01169 105.994 2.09932 105.626 2.2687C104.454 2.92092 104.531 4.3558 104.595 5.51675C104.641 5.97649 104.641 6.43972 104.595 6.89946C104.446 7.57719 104.24 8.24058 103.977 8.88221C103.563 9.93425 103.211 11.0101 102.922 12.1042C102.702 13.0263 102.72 13.9899 102.972 14.9032C103.225 15.8165 103.704 16.6492 104.364 17.3219C103.555 17.7659 102.93 18.4875 102.6 19.3569C102.329 19.9569 102.072 20.6613 101.788 21.444C101.32 22.7851 100.693 24.064 99.9213 25.2529C99.659 25.5888 99.3751 25.9069 99.0715 26.2052C98.0543 27.2748 96.7795 28.6184 97.7839 30.575C97.9916 31.0904 98.3008 31.5575 98.6926 31.9477C99.0845 32.3379 99.5508 32.6432 100.063 32.8448C100.256 32.8955 100.455 32.9218 100.655 32.923C101.112 32.9064 101.557 32.7669 101.943 32.5186C101.389 34.1883 100.385 36.745 100.23 37.1625L99.8698 38.1538H100.913H101.673L100.913 42.6933H0V43.7368H102.51V43.202L103.359 38.1408H104.055C105.239 38.0495 108.368 37.5407 108.433 37.5407C108.497 37.5407 107.145 37.4364 105.548 37.3581C104.433 37.2225 103.334 36.9779 102.265 36.6276C102.854 35.2752 103.328 33.8744 103.681 32.4404L102.625 32.1143C104.016 31.2533 106.63 29.5054 107.081 29.2706C108.529 29.5775 109.996 29.791 111.472 29.9098C111.472 30.562 111.613 31.5403 111.652 32.3491C110.944 31.6838 110.364 31.1751 109.913 30.7837L110.763 31.9969C112.109 34.0858 113.126 36.3743 113.776 38.78C114.111 40.0561 114.267 41.3733 114.24 42.6933V43.7368H123.588H123.717C123.575 41.2622 123.631 38.78 123.884 36.3146C124.077 35.1115 124.427 33.9401 124.927 32.8317L126.035 30.6272C125.893 30.7837 125.533 31.0968 125.095 31.5273L124.992 30.3272C126.679 30.9533 129.048 30.9664 132.718 30.6272C133.155 30.5849 133.586 30.4975 134.005 30.3663C134.456 32.1534 135.924 38.3104 135.731 41.5715L135.654 42.6411L135.576 43.6847H239.116V42.6411L137.07 42.7063ZM101.248 31.1751C101.145 31.2505 101.028 31.3033 100.903 31.3303C100.779 31.3572 100.651 31.3577 100.527 31.3316C100.23 31.2403 99.7668 30.9142 99.2389 29.8054C98.7625 28.9314 99.1359 28.4097 100.23 27.1965C100.552 26.8574 100.887 26.5052 101.196 26.1138C102.058 24.7314 102.738 23.2403 103.218 21.6788C103.501 20.9352 103.759 20.2308 104.003 19.683C104.305 19.013 104.793 18.4465 105.407 18.0524C105.816 18.3923 106.246 18.706 106.694 18.9916C106.694 18.9916 103.565 15.3653 104.402 12.2085C104.678 11.162 105.018 10.1339 105.42 9.13005C105.718 8.39738 105.947 7.63731 106.102 6.86032C106.167 6.28824 106.167 5.71055 106.102 5.13846C106.102 4.36884 106.012 3.50791 106.334 3.32529C106.533 3.22119 106.754 3.16688 106.978 3.16688C107.202 3.16688 107.422 3.22119 107.621 3.32529L108.085 3.62531L109.231 2.67307C109.823 2.42771 110.483 2.40743 111.089 2.61598C111.694 2.82453 112.205 3.24785 112.527 3.80794C113.749 5.20714 114.395 7.02814 114.33 8.89525V9.18223C114.334 10.1584 114.554 11.1213 114.974 11.9998C115.184 12.4541 115.369 12.9201 115.528 13.3956C115.965 14.6348 116.583 16.3958 115.811 17.6219C115.283 18.4698 114.163 17.8046 113.661 17.2828C113.78 17.6798 114.022 18.0275 114.351 18.2742C114.68 18.5209 115.079 18.6535 115.489 18.6525C115.492 18.8361 115.457 19.0183 115.386 19.1873C114.894 20.2022 114.531 21.276 114.304 22.3832C114.26 22.9036 114.247 23.4264 114.266 23.9485C114.266 25.2529 114.085 28.2923 113.223 28.4488C111.343 28.7749 104.776 27.4313 104.08 26.753L103.269 27.3531L102.844 27.6531C103.531 28.2748 104.373 28.6943 105.278 28.8662L101.248 31.1751Z" fill="white"/>
</g>
<defs>
<clipPath id="clip0_2053_40">
<rect width="239" height="62" fill="white"/>
</clipPath>
</defs>
</svg>
