<svg id="Laag_1" data-name="Laag 1" xmlns="http://www.w3.org/2000/svg" viewBox="0 0 1419.42 114.12"><defs><style>.cls-1{fill:#7f7048;}.cls-2{fill:#ca556c;}</style></defs><title>logo</title><path class="cls-1" d="M0,103.37V84.51H6.11V20.37H0V1.57H24.79q23.86,1,36.73,15.71T74.27,52.09v0.35Q74.09,72.93,62.6,88.15t-37.8,15.22H0ZM24.79,84.51q1,0.06,1.92.06,13.62,0,21-8.61,7.74-9.08,7.74-23.11V52.44q-0.17-16-8.21-24.21Q39.58,20.37,26,20.37H24.79V84.51Z"/><path class="cls-1" d="M164.25,23.86V42.61h-6.11V84.8h6.11v18.57H139.45V98.95a42.58,42.58,0,0,1-13.5,5,41.3,41.3,0,0,1-8.5.93A31.72,31.72,0,0,1,107,103.19a19.9,19.9,0,0,1-10.48-7.91,22.53,22.53,0,0,1-3.49-12.69v-40H87.24V23.86h24.56v54q0,4.89,3.72,7a11.1,11.1,0,0,0,5.53,1.34,22.43,22.43,0,0,0,7.68-1.57,22.05,22.05,0,0,0,10.71-7.68v-53h24.79Z"/><path class="cls-1" d="M220.23,1.57H263.3a27.89,27.89,0,0,1,7.33,1,34,34,0,0,1,9.89,4.66,35.92,35.92,0,0,1,7.22,6.87,32.6,32.6,0,0,1,4.66,8.79,36.74,36.74,0,0,1,1.75,11.23v0.7a42.2,42.2,0,0,1-1.51,10.48,32.73,32.73,0,0,1-4,8.61A26.59,26.59,0,0,1,280.07,62a29.12,29.12,0,0,1-7.51,3.32,32.92,32.92,0,0,1-8.91,1.22H245v36.78H226.29v-83h-6.05V1.57ZM245,20.37V47.73h18.63A11.64,11.64,0,0,0,272.21,44a12.53,12.53,0,0,0,3.67-9.14,15,15,0,0,0-3.81-10.1A11.63,11.63,0,0,0,263,20.37H245Z"/><path class="cls-1" d="M389.48,22.35a39.91,39.91,0,0,1,15.72,3.23,33.73,33.73,0,0,1,13,9.81,40.05,40.05,0,0,1,7.45,15.43,48.75,48.75,0,0,1,1.45,12.28,73.24,73.24,0,0,1-.64,9.37H372a23.15,23.15,0,0,0,21.19,13.91A22,22,0,0,0,412,76.71l10.13,17.23a42.08,42.08,0,0,1-28.93,10.94,42.64,42.64,0,0,1-17.05-3.44,42.09,42.09,0,0,1-13.74-9.37,41.2,41.2,0,0,1-8.61-12.83,39.1,39.1,0,0,1-3.14-15.63,41.84,41.84,0,0,1,8.61-25.67,40.67,40.67,0,0,1,13-11.29A34.93,34.93,0,0,1,389.48,22.35ZM372,54.77h36a18.74,18.74,0,0,0-5.53-10q-4.66-3.9-13.21-3.9a16.9,16.9,0,0,0-10.71,3.49A19.77,19.77,0,0,0,372,54.77Z"/><path class="cls-1" d="M480,85.12a4.11,4.11,0,0,0,1.77-3.75q-0.06-2.44-3.08-4.51t-4.95-3.17q-4.31-2.39-8.56-4.54t-8.56-4.6a29.63,29.63,0,0,1-8.32-6.75,17.83,17.83,0,0,1-4.42-11.7V45.17a21.16,21.16,0,0,1,3.2-10.85,24.17,24.17,0,0,1,7.62-7.54,31.22,31.22,0,0,1,15.54-4.42h1.51a50.72,50.72,0,0,1,15.31,2.27,89.13,89.13,0,0,1,12.22,5.24V46.45H480.86V41.27a23.15,23.15,0,0,0-6.63-1.57c-0.55,0-1.09-.06-1.63-0.06a16.61,16.61,0,0,0-5.94,1.1A5,5,0,0,0,463.87,43a2.59,2.59,0,0,0-.29,1.16,3.29,3.29,0,0,0,1,2.15q2.62,3,13.18,8A71.4,71.4,0,0,1,494.54,65a21.08,21.08,0,0,1,7.27,16.06c0,0.54,0,1.11-.06,1.69a21.9,21.9,0,0,1-4.95,13q-5.36,6.29-15.19,8.15a45.68,45.68,0,0,1-9,.87,53.67,53.67,0,0,1-31.72-10.54l10.24-15.71A43.16,43.16,0,0,0,464,85.5a26.4,26.4,0,0,0,8.26,1.4,24.16,24.16,0,0,0,3.73-.29A10.29,10.29,0,0,0,480,85.12Z"/><path class="cls-1" d="M554.4,85.12a4.11,4.11,0,0,0,1.77-3.75q-0.06-2.44-3.08-4.51t-4.95-3.17q-4.31-2.39-8.56-4.54T531,64.55a29.63,29.63,0,0,1-8.32-6.75,17.83,17.83,0,0,1-4.42-11.7V45.17a21.16,21.16,0,0,1,3.2-10.85,24.17,24.17,0,0,1,7.62-7.54,31.22,31.22,0,0,1,15.54-4.42h1.51a50.72,50.72,0,0,1,15.31,2.27,89.13,89.13,0,0,1,12.22,5.24V46.45H555.24V41.27a23.15,23.15,0,0,0-6.63-1.57c-0.55,0-1.09-.06-1.63-0.06a16.61,16.61,0,0,0-5.94,1.1A5,5,0,0,0,538.25,43a2.59,2.59,0,0,0-.29,1.16,3.29,3.29,0,0,0,1,2.15q2.62,3,13.18,8A71.4,71.4,0,0,1,568.92,65a21.08,21.08,0,0,1,7.27,16.06c0,0.54,0,1.11-.06,1.69a21.9,21.9,0,0,1-4.95,13Q565.83,102.09,556,104a45.68,45.68,0,0,1-9,.87,53.67,53.67,0,0,1-31.72-10.54l10.24-15.71a43.16,43.16,0,0,0,12.86,6.93,26.4,26.4,0,0,0,8.26,1.4,24.16,24.16,0,0,0,3.73-.29A10.29,10.29,0,0,0,554.4,85.12Z"/><path class="cls-1" d="M589.7,103.37V84.69h6.11V42.61H589.7V23.86h24.8V84.69h5.82v18.68H589.7ZM595.81,0h18.68V18.74H595.81V0Z"/><path class="cls-1" d="M672.26,85.12A4.11,4.11,0,0,0,674,81.37q-0.06-2.44-3.08-4.51T666,73.69q-4.31-2.39-8.56-4.54t-8.56-4.6a29.63,29.63,0,0,1-8.32-6.75,17.83,17.83,0,0,1-4.42-11.7V45.17a21.16,21.16,0,0,1,3.2-10.85A24.17,24.17,0,0,1,647,26.77a31.22,31.22,0,0,1,15.54-4.42H664a50.72,50.72,0,0,1,15.31,2.27,89.13,89.13,0,0,1,12.22,5.24V46.45H673.1V41.27a23.15,23.15,0,0,0-6.63-1.57c-0.55,0-1.09-.06-1.63-0.06a16.61,16.61,0,0,0-5.94,1.1A5,5,0,0,0,656.1,43a2.59,2.59,0,0,0-.29,1.16,3.29,3.29,0,0,0,1,2.15q2.62,3,13.18,8A71.4,71.4,0,0,1,686.78,65a21.08,21.08,0,0,1,7.27,16.06c0,0.54,0,1.11-.06,1.69a21.9,21.9,0,0,1-4.95,13q-5.36,6.29-15.19,8.15a45.68,45.68,0,0,1-9,.87,53.67,53.67,0,0,1-31.72-10.54l10.24-15.71a43.16,43.16,0,0,0,12.86,6.93,26.4,26.4,0,0,0,8.26,1.4,24.16,24.16,0,0,0,3.73-.29A10.29,10.29,0,0,0,672.26,85.12Z"/><path class="cls-2" d="M331.82,1.68H307V20.36h6.11V62.72c1.16-.33,10.66-3,18.68-5.16V1.68Z"/><polygon class="cls-2" points="313.14 70.23 307.04 110.44 331.33 114.12 334.13 95.65 328.32 94.77 330.44 80.74 313.14 70.23"/><path class="cls-2" d="M829.82,64.74h3.7v35.69h21.76v3.15H829.82V64.74Z"/><path class="cls-2" d="M860.39,90.47c0.05,5,2.67,11,9.25,11,5,0,7.73-2.94,8.81-7.18h3.43c-1.47,6.37-5.17,10.07-12.24,10.07-8.92,0-12.68-6.85-12.68-14.85,0-7.4,3.76-14.85,12.68-14.85S882.27,82.58,882,90.47h-21.6Zm18.17-2.88c-0.16-5.17-3.37-10-8.92-10s-8.71,4.9-9.25,10h18.17Z"/><path class="cls-2" d="M892.06,75.51h5.71V78.4h-5.71V97.33c0,2.23.33,3.54,2.78,3.7a26.27,26.27,0,0,0,2.94-.16v2.94c-1,0-2,.11-3,0.11-4.57,0-6.15-1.52-6.09-6.31V78.4h-4.9V75.51h4.9V67.08h3.43v8.43Z"/><path class="cls-2" d="M919.53,83.73c-0.16-4.25-3.43-6.15-7.35-6.15-3,0-6.64,1.2-6.64,4.84,0,3,3.48,4.13,5.82,4.73l4.57,1c3.92,0.6,8,2.88,8,7.78,0,6.09-6,8.43-11.26,8.43-6.53,0-11-3-11.54-9.9h3.43c0.27,4.62,3.7,7,8.27,7,3.21,0,7.67-1.41,7.67-5.33,0-3.26-3-4.35-6.15-5.11l-4.41-1c-4.46-1.2-7.83-2.72-7.83-7.51,0-5.71,5.6-7.89,10.56-7.89,5.6,0,10.07,2.94,10.28,9h-3.43Z"/><path class="cls-2" d="M930.9,90.47c0.05,5,2.67,11,9.25,11,5,0,7.73-2.94,8.81-7.18h3.43c-1.47,6.37-5.17,10.07-12.24,10.07-8.92,0-12.68-6.85-12.68-14.85,0-7.4,3.76-14.85,12.68-14.85s12.62,7.89,12.35,15.78H930.9Zm18.17-2.88c-0.16-5.17-3.37-10-8.92-10s-8.71,4.9-9.25,10h18.17Z"/><path class="cls-2" d="M957.17,64.74h3.43v38.85h-3.43V64.74Z"/><path class="cls-2" d="M984,83.73c-0.16-4.25-3.43-6.15-7.35-6.15-3,0-6.64,1.2-6.64,4.84,0,3,3.48,4.13,5.82,4.73l4.57,1c3.92,0.6,8,2.88,8,7.78,0,6.09-6,8.43-11.26,8.43-6.53,0-11-3-11.54-9.9H969c0.27,4.62,3.7,7,8.27,7,3.21,0,7.67-1.41,7.67-5.33,0-3.26-3-4.35-6.15-5.11l-4.41-1c-4.46-1.2-7.83-2.72-7.83-7.51,0-5.71,5.6-7.89,10.56-7.89,5.6,0,10.07,2.94,10.28,9H984Z"/><path class="cls-2" d="M1013.15,84.33c-0.93-4.19-3.48-6.75-7.94-6.75-6.58,0-9.85,6-9.85,12s3.27,12,9.85,12c4.24,0,7.73-3.32,8.16-8h3.43c-0.93,6.75-5.33,10.88-11.59,10.88-8.6,0-13.28-6.8-13.28-14.85s4.68-14.85,13.28-14.85c6,0,10.61,3.21,11.37,9.63h-3.43Z"/><path class="cls-2" d="M1021.53,64.74H1025V80.35h0.11c1.25-3.37,5-5.66,9-5.66,7.89,0,10.28,4.13,10.28,10.83v18.06h-3.43V86.07c0-4.84-1.58-8.49-7.13-8.49s-8.71,4.13-8.82,9.63v16.38h-3.43V64.74Z"/><path class="cls-2" d="M1050.47,84.11c0.33-6.58,5-9.41,11.37-9.41,5,0,10.34,1.52,10.34,9V98.63a1.83,1.83,0,0,0,2,2.07,3.23,3.23,0,0,0,1.09-.22v2.88a9.44,9.44,0,0,1-2.23.22c-3.48,0-4-2-4-4.9h-0.11c-2.39,3.64-4.84,5.71-10.23,5.71-5.17,0-9.41-2.56-9.41-8.22,0-7.89,7.67-8.16,15.07-9,2.83-.33,4.41-0.71,4.41-3.81,0-4.62-3.32-5.77-7.35-5.77-4.24,0-7.4,2-7.51,6.53h-3.43Zm18.28,4.14h-0.11c-0.43.82-2,1.09-2.88,1.25-5.82,1-13.06,1-13.06,6.47,0,3.43,3,5.55,6.26,5.55,5.22,0,9.85-3.32,9.79-8.81V88.24Z"/><path class="cls-2" d="M1103.73,103.59h-3.15V98.25h-0.11c-1.47,3.64-5.93,6.15-10,6.15-8.54,0-12.62-6.91-12.62-14.85s4.08-14.85,12.62-14.85c4.19,0,8.27,2.12,9.74,6.15h0.11V64.74h3.43v38.85Zm-13.28-2.07c7.29,0,9.85-6.15,9.85-12s-2.56-12-9.85-12c-6.53,0-9.2,6.15-9.2,12S1083.93,101.52,1090.46,101.52Z"/><path class="cls-2" d="M1112.27,90.47c0.05,5,2.67,11,9.25,11,5,0,7.73-2.94,8.81-7.18h3.43c-1.47,6.37-5.17,10.07-12.24,10.07-8.92,0-12.68-6.85-12.68-14.85,0-7.4,3.76-14.85,12.68-14.85s12.62,7.89,12.35,15.78h-21.6Zm18.17-2.88c-0.16-5.17-3.37-10-8.92-10s-8.71,4.9-9.25,10h18.17Z"/><path class="cls-2" d="M1165.64,64.74h4.13L1185,103.59h-4l-4.73-12.08h-17.68l-4.68,12.08h-4Zm-5.88,23.61h15.29l-7.51-19.92Z"/><path class="cls-2" d="M1212.59,103.59h-3.15V98.25h-0.11c-1.47,3.64-5.93,6.15-10,6.15-8.54,0-12.62-6.91-12.62-14.85s4.08-14.85,12.62-14.85c4.19,0,8.27,2.12,9.74,6.15h0.11V64.74h3.43v38.85Zm-13.28-2.07c7.29,0,9.85-6.15,9.85-12s-2.56-12-9.85-12c-6.53,0-9.2,6.15-9.2,12S1192.79,101.52,1199.32,101.52Z"/><path class="cls-2" d="M1216,75.51h3.81l8.81,24.65h0.11l8.71-24.65h3.54l-10.5,28.07h-3.64Z"/><path class="cls-2" d="M1269.44,89.55c0,8.05-4.68,14.85-13.28,14.85s-13.28-6.8-13.28-14.85,4.68-14.85,13.28-14.85S1269.44,81.5,1269.44,89.55Zm-23.12,0c0,6,3.27,12,9.85,12s9.85-6,9.85-12-3.27-12-9.85-12S1246.32,83.56,1246.32,89.55Z"/><path class="cls-2" d="M1294.36,84.33c-0.93-4.19-3.48-6.75-7.94-6.75-6.58,0-9.85,6-9.85,12s3.27,12,9.85,12c4.24,0,7.73-3.32,8.16-8H1298c-0.93,6.75-5.33,10.88-11.59,10.88-8.6,0-13.28-6.8-13.28-14.85s4.68-14.85,13.28-14.85c6,0,10.61,3.21,11.37,9.63h-3.43Z"/><path class="cls-2" d="M1302.46,84.11c0.33-6.58,5-9.41,11.37-9.41,5,0,10.34,1.52,10.34,9V98.63a1.83,1.83,0,0,0,2,2.07,3.23,3.23,0,0,0,1.09-.22v2.88a9.43,9.43,0,0,1-2.23.22c-3.48,0-4-2-4-4.9h-0.11c-2.39,3.64-4.84,5.71-10.23,5.71-5.17,0-9.41-2.56-9.41-8.22,0-7.89,7.67-8.16,15.07-9,2.83-.33,4.41-0.71,4.41-3.81,0-4.62-3.32-5.77-7.35-5.77-4.24,0-7.4,2-7.51,6.53h-3.43Zm18.28,4.14h-0.11c-0.43.82-2,1.09-2.88,1.25-5.82,1-13.06,1-13.06,6.47,0,3.43,3,5.55,6.26,5.55,5.22,0,9.85-3.32,9.79-8.81V88.24Z"/><path class="cls-2" d="M1336.46,75.51h5.71V78.4h-5.71V97.33c0,2.23.33,3.54,2.78,3.7a26.27,26.27,0,0,0,2.94-.16v2.94c-1,0-2,.11-3,0.11-4.57,0-6.15-1.52-6.09-6.31V78.4h-4.9V75.51h4.9V67.08h3.43v8.43Z"/><path class="cls-2" d="M1369.87,103.59h-3.16V98.53h-0.11a10.44,10.44,0,0,1-9.68,5.88c-7.07,0-9.85-4.13-9.85-10.66V75.51h3.43V93.79c0.16,5.06,2.07,7.73,7.51,7.73,5.88,0,8.43-5.55,8.43-11.26V75.51h3.43v28.07Z"/><path class="cls-2" d="M1399.08,103.59h-3.16V98.53h-0.11a10.44,10.44,0,0,1-9.69,5.88c-7.07,0-9.85-4.13-9.85-10.66V75.51h3.43V93.79c0.16,5.06,2.07,7.73,7.51,7.73,5.88,0,8.43-5.55,8.43-11.26V75.51h3.43v28.07Z"/><path class="cls-2" d="M1405.55,75.51h3.15v6.58h0.11a10.38,10.38,0,0,1,10.61-7v3.43c-6.2-.33-10.45,4.24-10.45,10.07v15h-3.43V75.51Z"/></svg>