<?xml version="1.0" encoding="UTF-8"?>
<svg width="262px" height="133px" viewBox="0 0 262 133" version="1.1" xmlns="http://www.w3.org/2000/svg" xmlns:xlink="http://www.w3.org/1999/xlink">
    <title>logo - wit</title>
    <g id="Symbols" stroke="none" stroke-width="1" fill="none" fill-rule="evenodd">
        <g id="Menu/MenuOverlay" transform="translate(-32.000000, -0.000000)">
            <g id="logo---wit" transform="translate(32.000000, 0.000000)">
                <g id="Group">
                    <polygon id="Fill-1" fill="#6FB7C0" points="-4.09247684e-13 -5.52344632e-14 -4.09247684e-13 132.976802 64.4366941 132.976802 83.112714 114.300782 83.112714 -5.52344632e-14"></polygon>
                    <path d="M37.0864154,75.5327283 L37.0864154,37.1185452 L38.2370707,37.1185452 L45.9376096,44.8190842 L45.9376096,75.5327283 L37.0864154,75.5327283 Z M37.0864154,109.963874 L46.0261216,109.963874 L46.0261216,88.6324958 L37.0864154,88.6324958 L37.0864154,109.963874 Z M25.402839,75.5327283 L25.402839,44.8190842 L26.6420062,44.8190842 L34.3425452,52.5196232 L34.3425452,75.5327283 L25.402839,75.5327283 Z M25.402839,105.095717 L34.3425452,105.095717 L34.3425452,88.6324958 L25.402839,88.6324958 L25.402839,105.095717 Z M57.709698,75.5327283 L57.709698,44.8190842 L56.5590427,44.8190842 L48.8585038,52.5196232 L48.8585038,75.5327283 L57.709698,75.5327283 Z M48.8585038,105.095717 L57.7982099,105.095717 L57.7982099,88.6324958 L48.8585038,88.6324958 L48.8585038,105.095717 Z M19.207003,86.5082092 L63.905534,86.5082092 L63.905534,77.568503 L19.207003,77.568503 L19.207003,86.5082092 Z" id="Fill-2" fill="#FFFFFF"></path>
                    <path d="M65.6760384,82.5246407 L71.1637788,82.5246407 L68.0658608,86.8617259 L71.1637788,91.1102991 L60.5423457,91.1102991 L60.5423457,88.2779169 L65.6760384,88.2779169 L65.6760384,82.5246407 Z M17.5255416,82.5246407 L12.0378012,82.5246407 L15.0472073,86.8617259 L12.0378012,91.1102991 L22.5707224,91.1102991 L22.5707224,88.2779169 L17.5255416,88.2779169 L17.5255416,82.5246407 Z" id="Fill-3" fill="#FFFFFF"></path>
                </g>
                <path d="M193.759036,52.5118976 L193.759036,45.5088855 L202.192771,45.5088855 L202.192771,41.8944277 L193.759036,41.8944277 L193.759036,35.0420181 L203.623494,35.0420181 L203.623494,31.5781627 L193.457831,31.5781627 L189.692771,35.3432229 L189.692771,56.2016566 L204.075301,56.2016566 L204.075301,52.5118976 L193.759036,52.5118976 Z M135.099398,52.5118976 L135.099398,45.5088855 L143.533133,45.5088855 L143.533133,41.8944277 L135.099398,41.8944277 L135.099398,35.0420181 L144.963855,35.0420181 L144.963855,31.5781627 L134.873494,31.5781627 L131.033133,35.3432229 L131.033133,56.2016566 L145.490211,56.2016566 L145.490211,52.5118976 L135.099398,52.5118976 Z M216.575301,42.3462349 L216.575301,45.9606928 L220.791416,45.9606928 L220.791416,48.5962349 C220.791416,51.3823795 219.361446,52.6625 216.198795,52.6625 C212.810241,52.6625 212.131777,51.1564759 212.131777,48.7468373 L212.131777,38.9576807 C212.131777,36.6233434 212.810241,35.0420181 216.198795,35.0420181 C219.737952,35.0420181 220.41491,36.2468373 220.490964,38.5811747 L224.556476,38.5811747 C224.481928,33.535994 222.14759,31.5028614 216.198795,31.5028614 C210.400602,31.5028614 208.066265,33.6112952 208.066265,38.7317771 L208.066265,48.7468373 C208.066265,54.0932229 210.400602,56.2769578 216.198795,56.2769578 C223.126506,56.2769578 224.556476,54.0179217 224.556476,48.5962349 L224.556476,46.1112952 L220.791416,42.3462349 L216.575301,42.3462349 Z M242.478916,31.6534639 L228.096386,31.6534639 L228.096386,35.2679217 L233.292169,35.2679217 L233.292169,56.1263554 L237.357681,56.1263554 L237.357681,35.2679217 L242.478916,35.2679217 L242.478916,31.6534639 Z M108.066265,52.5118976 L108.066265,31.5781627 L104,31.5781627 L104,52.5871988 L107.539157,56.1263554 L117.704819,56.1263554 L117.704819,52.5118976 L108.066265,52.5118976 Z M175.686747,43.6263554 L173.653614,43.6263554 L173.653614,35.2679217 L175.762048,35.2679217 C179.375753,35.2679217 180.054217,36.6233434 180.054217,39.1082831 L180.054217,39.9365964 C180.054217,42.6474398 178.849398,43.6263554 175.686747,43.6263554 L175.686747,43.6263554 Z M179.903614,46.7137048 L180.128765,46.6384036 C183.066265,45.659488 184.270331,43.7769578 184.270331,40.1625 L184.270331,38.8823795 C184.270331,33.7618976 181.710843,31.5781627 175.610693,31.5781627 L173.351657,31.5781627 L169.512048,35.4185241 L169.512048,56.2016566 L173.578313,56.2016566 L173.578313,47.3914157 L175.536145,47.3914157 L180.505271,56.2016566 L185.25,56.2016566 L179.903614,46.7137048 Z M157.161898,52.6625 L153.096386,52.6625 L153.096386,44.9817771 L157.087349,44.9817771 C160.25,44.9817771 161.379518,45.9606928 161.379518,48.8221386 C161.379518,51.3823795 160.777108,52.6625 157.161898,52.6625 L157.161898,52.6625 Z M153.171687,35.1173193 L156.334337,35.1173193 C159.120482,35.1173193 159.271084,37.4516566 159.271084,38.2046687 C159.271084,40.0871988 158.141566,41.3673193 156.334337,41.3673193 L153.171687,41.3673193 L153.171687,35.1173193 Z M161.379518,42.722741 L160.926958,42.6474398 L161.303464,42.3462349 C163.111446,41.1414157 163.487952,39.785994 163.487952,38.1293675 C163.487952,34.289006 160.626506,31.7287651 156.334337,31.7287651 L152.945783,31.7287651 L149.105422,35.5691265 L149.105422,56.352259 L157.161898,56.352259 C163.337349,56.352259 165.821536,54.1685241 165.821536,48.8221386 C165.746988,45.5841867 164.090361,43.2498494 161.379518,42.722741 L161.379518,42.722741 Z M253.170934,56.4275602 C259.045181,56.4275602 261.454066,54.0932229 261.454066,48.4456325 C261.454066,43.5510542 258.818524,42.4968373 255.957831,42.0450301 C255.355422,41.9697289 254.828313,41.8944277 254.300452,41.8191265 C251.51506,41.4426205 249.481928,41.2167169 249.481928,38.3552711 C249.481928,35.9456325 250.535392,34.9667169 253.170934,34.9667169 C255.506024,34.9667169 256.559488,35.7950301 256.786145,37.6775602 L260.85241,37.6775602 C260.400602,33.3853916 258.065512,31.4275602 253.170934,31.4275602 C248.051205,31.4275602 245.415663,33.8371988 245.415663,38.3552711 C245.415663,42.4215361 247.222892,44.6052711 251.063253,45.0570783 C251.364458,45.1323795 251.740964,45.1323795 252.041416,45.2076807 C254.527108,45.5088855 257.388554,45.8100904 257.388554,48.5962349 C257.388554,51.4576807 256.108434,52.7378012 253.246988,52.7378012 C250.611446,52.7378012 249.405873,51.909488 249.256024,49.8010542 L245.114458,49.8010542 C245.264307,54.2438253 247.825301,56.4275602 253.170934,56.4275602 L253.170934,56.4275602 Z M193.156627,76.909488 L191.123494,76.909488 L191.123494,68.5510542 L193.231928,68.5510542 C196.846386,68.5510542 197.524096,69.9072289 197.524096,72.3914157 L197.524096,73.2197289 C197.524096,75.8552711 196.243976,76.909488 193.156627,76.909488 L193.156627,76.909488 Z M197.373494,79.9968373 L197.599398,79.9215361 C200.536145,78.9433735 201.740964,77.0608434 201.740964,73.4456325 L201.740964,72.1662651 C201.740964,67.0450301 199.180723,64.8612952 193.081325,64.8612952 L190.822289,64.8612952 L186.981928,68.7016566 L186.981928,89.4855422 L191.04744,89.4855422 L191.04744,80.6745482 L193.006024,80.6745482 L197.975904,89.4855422 L202.719127,89.4855422 L197.373494,79.9968373 Z M121.921687,56.1263554 L125.987952,56.1263554 L125.987952,31.5781627 L121.921687,31.5781627 L121.921687,56.1263554 Z M125.987952,85.7950301 L125.987952,78.7920181 L134.421687,78.7920181 L134.421687,75.1783133 L125.987952,75.1783133 L125.987952,68.3251506 L135.85241,68.3251506 L135.85241,64.8612952 L125.762048,64.8612952 L121.921687,68.6263554 L121.921687,89.4855422 L136.304217,89.4855422 L136.304217,85.7950301 L125.987952,85.7950301 Z M108.066265,85.7950301 L108.066265,64.8612952 L104,64.8612952 L104,85.8703313 L107.539157,89.409488 L117.704819,89.409488 L117.704819,85.7950301 L108.066265,85.7950301 Z M214.090361,70.660241 L216.424699,81.0510542 L211.755271,81.0510542 L214.090361,70.660241 Z M217.478916,85.0420181 L218.759036,89.4855422 L222.975904,89.4855422 L216.198795,64.8612952 L212.057229,64.8612952 L205.28012,89.409488 L209.496235,89.409488 L210.777108,84.9674699 L217.478916,84.9674699 L217.478916,85.0420181 Z M183.96988,65.0871988 L169.586596,65.0871988 L169.586596,68.6263554 L174.783133,68.6263554 L174.783133,89.5600904 L178.849398,89.5600904 L178.849398,68.6263554 L183.96988,68.6263554 L183.96988,65.0871988 Z M158.667922,89.7106928 C164.542169,89.7106928 166.951054,87.3763554 166.951054,81.7287651 C166.951054,76.8341867 164.315512,75.7799699 161.454819,75.3281627 C160.85241,75.2528614 160.325301,75.1783133 159.79744,75.102259 C157.012048,74.725753 154.978916,74.4998494 154.978916,71.6384036 C154.978916,69.2287651 156.03238,68.2498494 158.667922,68.2498494 C161.003012,68.2498494 162.056476,69.0781627 162.283133,70.9606928 L166.349398,70.9606928 C165.89759,66.6685241 163.5625,64.7106928 158.667922,64.7106928 C153.548193,64.7106928 150.912651,67.1203313 150.912651,71.6384036 C150.912651,75.7046687 152.71988,77.8884036 156.560241,78.3402108 C156.861446,78.415512 157.237952,78.415512 157.538404,78.4908133 C160.024096,78.7920181 162.885542,79.0932229 162.885542,81.8793675 C162.885542,84.7408133 161.605422,86.0209337 158.743976,86.0209337 C156.108434,86.0209337 154.902861,85.1926205 154.753012,83.0849398 L150.686747,83.0849398 C150.761295,87.5269578 153.396837,89.7106928 158.667922,89.7106928 L158.667922,89.7106928 Z M141.348645,89.409488 L145.41491,89.409488 L145.41491,64.8612952 L141.348645,64.8612952 L141.348645,89.409488 Z" id="Fill-4" fill="#0D2654"></path>
            </g>
        </g>
    </g>
</svg>