<svg width="1000" height="124" viewBox="0 0 1000 124" fill="none" xmlns="http://www.w3.org/2000/svg">
<path d="M297.222 80.0048H184.66V98.1585H297.222V80.0048Z" fill="#C1AA93"/>
<path d="M934.694 122.418H943.999V71.661C943.999 56.0961 951.95 45.6061 967.855 45.6061C981.051 45.6061 990.695 53.2195 990.695 72.5075V122.418H1000V72.3393C1000 48.4836 987.651 36.809 968.87 36.809C956.181 36.809 948.398 41.2085 944 49.3291V37.8245H934.694L934.694 122.418ZM857.882 73.8621C857.882 55.5897 865.834 45.4379 881.229 45.4379C896.626 45.4379 904.577 55.4206 904.577 73.8621V74.0312H857.882V73.8621ZM913.883 82.4892V73.8612C913.883 49.8356 902.379 36.8081 881.229 36.8081C860.081 36.8081 848.576 49.8356 848.576 73.8612V86.0422C848.576 109.56 861.604 123.433 884.106 123.433C897.811 123.433 907.116 119.033 913.037 109.729L905.593 104.484C900.855 111.759 893.918 114.806 883.599 114.806C865.665 114.806 857.882 102.794 857.882 86.0422V82.4892H913.883ZM794.095 46.4534H804.924V96.364C804.924 113.96 810.339 122.418 829.118 122.418H835.039V113.451H829.456C815.752 113.451 814.229 107.36 814.229 93.8265V46.4534H835.039V37.8245H814.229V19.2139H804.923V37.8245H794.095L794.095 46.4534ZM768.55 90.9499C768.55 109.899 758.229 114.636 744.525 114.636C732.682 114.636 724.391 110.238 724.391 98.3933C724.391 89.4261 729.298 82.6592 743.849 82.6592H768.55V90.9499ZM715.085 98.2251C715.085 114.467 725.745 123.434 744.525 123.434C755.353 123.434 763.812 120.896 768.55 111.93V122.418H777.855V63.8786C777.855 43.2377 768.042 36.8081 747.403 36.8081C732.344 36.8081 723.884 40.3611 717.963 50.3438L725.068 55.2496C730.482 46.2825 737.08 45.6061 747.232 45.6061C762.797 45.6061 768.55 49.4973 768.55 63.8786V74.3685H743.849C726.422 74.3685 715.085 81.9828 715.085 98.2251ZM697.997 104.485C693.259 111.93 685.308 114.806 676.679 114.806C658.069 114.806 650.285 102.795 650.285 86.0431V73.8621C650.285 55.5897 659.93 45.4379 676.679 45.4379C685.138 45.4379 693.09 48.4836 697.828 54.9123L705.273 49.8365C699.011 41.2085 689.029 36.809 676.679 36.809C654.347 36.809 640.98 49.8365 640.98 73.8621V86.0431C640.98 109.899 654.007 123.434 676.679 123.434C689.876 123.434 699.859 118.697 705.442 109.73L697.997 104.485ZM616.451 86.2113C616.451 103.976 607.821 114.806 591.41 114.806C574.322 114.806 566.369 103.976 566.369 86.2113V73.8621C566.369 55.4206 575.167 45.4379 591.41 45.4379C607.483 45.4379 616.451 55.4206 616.451 73.8621V86.2113ZM625.756 86.2113V73.8621C625.756 49.8365 613.067 36.809 591.41 36.809C569.754 36.809 557.064 49.8365 557.064 73.8621V86.2113C557.064 109.899 569.584 123.434 591.41 123.434C614.08 123.434 625.756 109.222 625.756 86.2113ZM537.778 37.8245L509.183 110.069L480.591 37.8245H470.27L504.786 122.418H513.922L548.099 37.8245H537.778ZM422.561 114.806C406.149 114.806 398.198 103.807 398.198 86.0422V73.8612C398.198 55.4197 406.487 45.437 422.561 45.437C440.664 45.437 447.432 56.7725 447.432 74.0312V86.2113C447.432 102.794 441.51 114.806 422.561 114.806ZM447.432 48.8218C442.694 40.8702 434.574 36.809 421.884 36.809C400.904 36.809 388.892 49.8365 388.892 73.8621V86.0431C388.892 109.223 399.89 123.434 421.884 123.434C434.574 123.434 442.694 119.881 447.432 112.098V122.418H456.737V5.67822H447.432V48.8218ZM360.131 90.9499C360.131 109.899 349.811 114.636 336.106 114.636C324.263 114.636 315.973 110.238 315.973 98.3933C315.973 89.4261 320.879 82.6592 335.43 82.6592H360.131V90.9499ZM306.667 98.2251C306.667 114.467 317.326 123.434 336.106 123.434C346.934 123.434 355.394 120.896 360.131 111.93V122.418H369.437V63.8786C369.437 43.2377 359.624 36.8081 338.983 36.8081C323.924 36.8081 315.465 40.3611 309.544 50.3438L316.65 55.2496C322.063 46.2825 328.662 45.6061 338.814 45.6061C354.379 45.6061 360.131 49.4973 360.131 63.8786V74.3685H335.43C318.003 74.3685 306.667 81.9828 306.667 98.2251Z" fill="#231F20"/>
<path d="M0 0.855957L43.5241 123.433H62.3551L105.879 0.855957H83.317L52.7619 90.5685L22.5612 0.855957H0Z" fill="#231F20"/>
<path d="M266.102 123.433L222.578 0.855957H203.747L160.223 123.433H182.785L213.34 33.7219L243.54 123.433H266.102Z" fill="#231F20"/>
<path d="M142.827 0.855957H122.219V123.433H142.827V0.855957Z" fill="#231F20"/>
</svg>
