<?xml version="1.0" encoding="UTF-8" standalone="no"?>
<!-- Generator: Adobe Illustrator 15.1.0, SVG Export Plug-In . SVG Version: 6.00 Build 0)  -->

<svg
   version="1.1"
   id="Layer_1"
   x="0px"
   y="0px"
   width="518.24px"
   height="260.079px"
   viewBox="0 0 518.24 260.079"
   enable-background="new 0 0 518.24 260.079"
   xml:space="preserve"
   sodipodi:docname="Yspeert_logo_rgb_blauw_enkel.svg"
   inkscape:version="1.1.1 (3bf5ae0d25, 2021-09-20)"
   xmlns:inkscape="http://www.inkscape.org/namespaces/inkscape"
   xmlns:sodipodi="http://sodipodi.sourceforge.net/DTD/sodipodi-0.dtd"
   xmlns="http://www.w3.org/2000/svg"
   xmlns:svg="http://www.w3.org/2000/svg"><defs
   id="defs20" /><sodipodi:namedview
   id="namedview18"
   pagecolor="#ffffff"
   bordercolor="#666666"
   borderopacity="1.0"
   inkscape:pageshadow="2"
   inkscape:pageopacity="0.0"
   inkscape:pagecheckerboard="0"
   showgrid="false"
   inkscape:zoom="2.1129207"
   inkscape:cx="259.12"
   inkscape:cy="129.91496"
   inkscape:window-width="1920"
   inkscape:window-height="1017"
   inkscape:window-x="-8"
   inkscape:window-y="-8"
   inkscape:window-maximized="1"
   inkscape:current-layer="Layer_1" />
<g
   id="g15"
   transform="translate(-60)">
	<g
   id="g11">
		<path
   fill="#2a4e78"
   d="m 458.388,102.362 c -2.7,2.15 -6.551,3.6 -10.45,3.6 -6.25,0 -10.45,-3.699 -10.45,-11.65 v -25.7 h 21.7 v -5.15 h -21.7 v -15.35 h -5.7 v 15.35 h -10.85 v 5.15 h 10.85 v 25.8 c 0,11.4 5.9,16.851 15.65,16.851 5.7,0 10.3,-1.9 13.7,-4.65 z m -59.65,-39.7 c -6.2,0 -11.4,3.3 -14.5,8.8 v -8 h -5.6 v 47.05 h 5.649 v -26.55 c 0,-9.2 5.4,-15.85 13.45,-15.85 2.85,0 6.05,0.65 8.35,1.9 l 1.45,-5.55 c -2.549,-1.25 -5.449,-1.8 -8.799,-1.8 m -80.999,21.5 c 1.1,-9.55 7.75,-16.4 17.3,-16.4 8.851,0 15.5,6.65 16.351,16.4 z m 39.45,2.55 c -0.15,-14.05 -9.5,-24 -22.05,-24 -13.25,0 -23.301,10.1 -23.301,24.3 0,14.35 9.9,24.25 23.65,24.25 6.8,0 13.351,-1.7 19.3,-7.75 l -3.05,-3.851 c -4.2,4.05 -9.35,6.65 -15.899,6.65 -9.601,0 -17.301,-6.3 -18.15,-17.25 h 39.35 c 0.051,-0.699 0.15,-1.499 0.15,-2.349 M 254.69,84.162 c 1.1,-9.55 7.75,-16.4 17.3,-16.4 8.85,0 15.5,6.65 16.35,16.4 z m 39.451,2.55 c -0.15,-14.05 -9.5,-24 -22.051,-24 -13.25,0 -23.3,10.1 -23.3,24.3 0,14.35 9.9,24.25 23.65,24.25 6.8,0 13.35,-1.7 19.3,-7.75 l -3.05,-3.851 c -4.2,4.05 -9.351,6.65 -15.9,6.65 -9.6,0 -17.3,-6.3 -18.15,-17.25 h 39.35 c 0.05,-0.699 0.151,-1.499 0.151,-2.349 m -87.25,19.2 c -10.6,0 -18.3,-8.1 -18.3,-18.9 0,-10.8 7.7,-18.95 18.3,-18.95 10.75,0 18.35,8.3 18.35,18.95 0,10.6 -7.5,18.9 -18.35,18.9 m 0.65,-43.2 c -8.5,0 -14.8,3.9 -18.55,9.7 v -8.95 h -5.7 v 67.05 h 5.7 v -28.95 c 3.75,5.8 10.05,9.7 18.55,9.7 13.25,0 23.55,-10.25 23.55,-24.25 0,-14 -10.3,-24.3 -23.55,-24.3 m -65.199,48.551 c 12.15,0 20.3,-5.2 20.3,-14.101 0,-7.45 -5.7,-11.45 -15.5,-12.65 l -6,-0.7 c -7.3,-0.8 -10.75,-3.3 -10.75,-7.6 0,-5.25 5.2,-8.45 12.55,-8.45 6.65,0 12.75,2.45 15.95,4.7 l 2.5,-4.45 c -4.3,-3.05 -11,-5.25 -18.5,-5.25 -10.85,0 -18.35,5.1 -18.35,13.75 0,6.7 4.65,11.4 15.3,12.6 l 6.05,0.65 c 7.3,0.75 10.9,3.4 10.9,7.75 0,5.85 -5.9,8.7 -14.4,8.7 -8.15,0 -13,-2.399 -16.75,-5.25 l -2.7,4.301 c 5.45,4.149 12.55,6 19.4,6 m -37.801,-47.801 -17.8,30.95 -18.95,-30.95 h -6.35 l 22.05,36.55 -17.85,30.5 h 6.25 l 38.9,-67.05 z"
   id="path9" />
	</g>
	<path
   fill="#2a4e78"
   d="m 450.684,179.808 c -2.9,0 -6.025,1.025 -7.975,3.85 v -3.375 h -3.7 v 23.676 h 3.75 v -13.351 c 0,-4.399 3.175,-7.25 7.25,-7.25 4.325,0 6.825,2.65 6.825,7.15 v 13.45 h 3.725 v -14.676 c 0,-5.724 -4.026,-9.474 -9.875,-9.474 m -57.373,10.599 c 0.575,-4.274 3.425,-7.274 7.775,-7.274 4.024,0 6.925,2.85 7.399,7.274 z m 18.974,1.625 c -0.05,-7.199 -4.699,-12.225 -11.125,-12.225 -6.75,0 -11.75,5.075 -11.75,12.325 0,7.325 4.976,12.3 11.976,12.3 3.475,0 6.774,-0.875 9.725,-3.7 l -2,-2.55 c -2.024,1.85 -4.575,2.975 -7.5,2.975 -4.274,0 -7.85,-2.625 -8.35,-7.725 h 18.95 c 0.05,-0.424 0.074,-0.924 0.074,-1.4 m -47.748,7.25 c -1.35,0.976 -3.225,1.65 -4.949,1.65 -2.75,0 -4.7,-1.625 -4.7,-5.325 v -11.95 h 10.225 v -3.375 h -10.225 v -7.524 h -3.726 v 7.524 h -5.199 v 3.375 h 5.199 v 12.025 c 0,5.95 3.025,8.75 8.101,8.75 2.899,0 5.25,-1 7.024,-2.35 z m -55.073,1.851 c -3.35,0 -5.1,-1.8 -5.1,-3.925 0,-2.125 1.65,-4.025 6.175,-4.025 h 6.825 v 4.175 c -2.05,2.275 -4.849,3.775 -7.9,3.775 m 1.35,-21.325 c -3.4,0 -6.476,1.025 -9.15,3.075 l 1.775,2.8 c 1.7,-1.325 4,-2.5 6.899,-2.5 4.45,0 7,2.2 7.025,6.875 h -7.225 c -6.325,0 -9.75,3.025 -9.75,7.15 0,4.149 3.1,7.225 8.324,7.225 3.601,0 6.65,-1.475 8.65,-3.225 v 2.75 h 3.725 v -14.226 c 0.002,-6.474 -3.873,-9.924 -10.273,-9.924 m -43.547,24.625 c 3.5,0 6.625,-1.3 8.774,-3.725 l -2.325,-2.551 c -1.675,1.625 -3.975,2.775 -6.55,2.775 -4.75,0 -8.35,-3.7 -8.35,-8.825 0,-5.1 3.6,-8.8 8.35,-8.8 2.575,0 4.7,1.025 6.476,2.75 l 2.399,-2.525 c -2.125,-2.425 -5.274,-3.725 -8.774,-3.725 -7.275,0 -12.25,5.3 -12.25,12.3 -0.001,7.026 4.974,12.326 12.25,12.326 m -49.649,-3.5 c -4.925,0 -8.65,-3.7 -8.65,-8.825 0,-5.1 3.725,-8.8 8.65,-8.8 4.9,0 8.65,3.7 8.65,8.8 0,5.124 -3.75,8.825 -8.65,8.825 m 0,3.5 c 7.125,0 12.475,-5.3 12.475,-12.325 0,-7 -5.35,-12.3 -12.475,-12.3 -7.125,0 -12.45,5.3 -12.45,12.3 0,7.025 5.325,12.325 12.45,12.325 m -39.174,-24.151 -8.275,19.9 -8.275,-19.9 h -4.05 l 10.1,23.726 h 4.375 l 10.075,-23.726 z m -57.447,20.651 c -5.025,0 -8.475,-3.925 -8.475,-8.825 0,-4.875 3.4,-8.8 8.475,-8.8 4.925,0 8.425,3.8 8.425,8.8 0,5.025 -3.5,8.825 -8.425,8.825 m 8.2,-32.975 v 15.85 c -1.875,-2.425 -4.75,-4 -8.65,-4 -6.65,0 -11.825,5.2 -11.825,12.3 0,7.125 5.175,12.325 11.825,12.325 3.9,0 6.775,-1.575 8.65,-4 v 3.525 h 3.725 v -36 z m -58.573,33.175 c -3.35,0 -5.1,-1.8 -5.1,-3.925 0,-2.125 1.65,-4.025 6.175,-4.025 h 6.825 v 4.175 c -2.05,2.275 -4.85,3.775 -7.9,3.775 m 1.35,-21.325 c -3.4,0 -6.475,1.025 -9.15,3.075 l 1.775,2.8 c 1.7,-1.325 4,-2.5 6.9,-2.5 4.45,0 7,2.2 7.025,6.875 h -7.225 c -6.325,0 -9.75,3.025 -9.75,7.15 0,4.149 3.1,7.225 8.325,7.225 3.6,0 6.65,-1.475 8.65,-3.225 v 2.75 h 3.725 v -14.226 c 0,-6.474 -3.875,-9.924 -10.275,-9.924"
   id="path13" />
</g>
</svg>
